<?xml version="1.0" encoding="utf-8"?>
<!-- Generator: Adobe Illustrator 23.1.1, SVG Export Plug-In . SVG Version: 6.00 Build 0)  -->
<svg version="1.1" xmlns="http://www.w3.org/2000/svg" xmlns:xlink="http://www.w3.org/1999/xlink" x="0px" y="0px"
	 viewBox="0 0 1920 1264" style="enable-background:new 0 0 1920 1264;" xml:space="preserve">
<style type="text/css">
	.st0{fill:url(#SVGID_1_);stroke:#000000;stroke-miterlimit:10;}
	.st1{fill:url(#SVGID_2_);stroke:#000000;stroke-miterlimit:10;}
	.st2{display:none;}
	.st3{display:inline;}
	.st4{fill:url(#SVGID_3_);}
	.st5{fill:url(#SVGID_4_);}
	.st6{fill:url(#SVGID_5_);}
	.st7{fill:url(#SVGID_6_);}
	.st8{fill:url(#SVGID_7_);}
	.st9{fill:url(#SVGID_8_);}
	.st10{fill:url(#SVGID_9_);}
	.st11{fill:url(#SVGID_10_);}
	.st12{fill:url(#SVGID_11_);}
	.st13{fill:url(#SVGID_12_);}
	.st14{fill:url(#SVGID_13_);}
	.st15{fill:url(#SVGID_14_);}
	.st16{fill:url(#SVGID_15_);}
	.st17{fill:url(#SVGID_16_);}
	.st18{fill:url(#SVGID_17_);}
	.st19{fill:url(#SVGID_18_);}
	.st20{fill:url(#SVGID_19_);}
	.st21{fill:url(#SVGID_20_);}
	.st22{fill:url(#SVGID_21_);}
	.st23{fill:url(#SVGID_22_);}
	.st24{fill:url(#SVGID_23_);}
	.st25{fill:url(#SVGID_24_);}
	.st26{fill:#302A49;}
	.st27{opacity:0.63;}
	.st28{fill:none;stroke:#FFFFFF;stroke-miterlimit:10;}
	.st29{fill:#FFFFFF;}
	.st30{opacity:0.24;}
</style>
<g id="Layer_1">
	
		<linearGradient id="SVGID_1_" gradientUnits="userSpaceOnUse" x1="-176.5571" y1="752.1122" x2="1274.8907" y2="752.1122" gradientTransform="matrix(-1.000000e-15 0.7981 -1.8562 -4.000000e-15 2356.0442 140.9036)">
		<stop  offset="0" style="stop-color:#8647BE"/>
		<stop  offset="1" style="stop-color:#F8AEFF;stop-opacity:0"/>
	</linearGradient>
	<polygon class="st0" points="-55.8,1158.3 -55.8,0 1975.8,0 1975.8,1158.3 	"/>
	
		<linearGradient id="SVGID_2_" gradientUnits="userSpaceOnUse" x1="-344.9009" y1="737.566" x2="1106.5469" y2="737.566" gradientTransform="matrix(-1.000000e-15 0.7981 -1.8562 -4.000000e-15 2356.0442 140.9036)">
		<stop  offset="0" style="stop-color:#8647BE"/>
		<stop  offset="1" style="stop-color:#F8AED1;stop-opacity:0"/>
	</linearGradient>
	<polygon class="st1" points="-28.8,1024 -28.8,-134.3 2002.8,-134.3 2002.8,1024 	"/>
</g>
<g id="Layer_2" class="st2">
	<g id="_x33_ve2X8.tif" class="st3">
		
			<image style="overflow:visible;" width="1400" height="980" id="Layer_0_1_" xlink:href="627B44333031CE90.png"  transform="matrix(1.4406 0 0 1.4406 -48.4286 237.1)">
		</image>
	</g>
</g>
<g id="Layer_5">
	<linearGradient id="SVGID_3_" gradientUnits="userSpaceOnUse" x1="911.8143" y1="617.2214" x2="911.8143" y2="1430.7738">
		<stop  offset="0" style="stop-color:#9579BE"/>
		<stop  offset="1" style="stop-color:#F8AEFF;stop-opacity:0"/>
	</linearGradient>
	<path class="st4" d="M-82.3,898.8c0,0,712.3-108.9,728.3-108.9s40-7,59,0s10,10.9,20,11.4s14-7.6,22,0s14,17.6,20,14.6s30-19,36-19
		s16-2.2,16-10.1s26-14.9,26-14.9l9-15c0,0,10,1,13,0s16,0,21-8s25-8.3,25-8.3s11.7-17.8,21.3-17.1c9.7,0.8,29.3-6.9,29.3-1.9
		s10.7-8.7,8.3-11s6.7-3.3,6.7-3.3s9.7-10.7,16.7-9.7s40.7,6.7,44,21c3.3,14.3,39.3,3.7,68.3,29c0,0,11.7-0.7,13.3,3s38,29,46,29.3
		c8,0.3,49,9.3,68.3-4.7c19.3-14,37.7-3.3,37.7-3.3s12.7-16.2,25-14.9s39,1.9,40,1.6s17.3-14.3,20.7-14.3c3.3,0,20.7-0.7,20.7-3.7
		s17-12.8,21.7-17.1c4.7-4.2,12.3-9.2,15-9.2s19.7-14,26.7-14s38.3-25,105.3,3.3c0,0,57.3,38,61.3,36.7c4-1.3,34-6.3,35.3-5.3
		c1.3,1,13-1,13.3-2s12-7.3,15-7.3s11,2.7,17.3-4.7c6.3-7.3,20-15.7,22.7-15.7s18.7-5,20-7s17-10.7,19.7-10.3c2.7,0.3,2.7-8,9-8
		c6.3,0,42-16.3,70.7-9c0,0,8-5,11-9.7c3-4.7,23.3-12,24.7-12s2.3-11.7,7.3-11.7s19.3-0.7,21-2.3c1.7-1.7,8.3-10,14.3-10
		s70.7-8,70.7-8l43.6,813.6l-2226.2-36L-82.3,898.8z"/>
</g>
<g id="Layer_7">
	<g>
		<linearGradient id="SVGID_4_" gradientUnits="userSpaceOnUse" x1="1792.1768" y1="921.5383" x2="1792.1768" y2="922.9091">
			<stop  offset="0.3392" style="stop-color:#C896AD;stop-opacity:0.9"/>
			<stop  offset="1" style="stop-color:#C588FF"/>
		</linearGradient>
		<path class="st5" d="M1792.1,922.8c-0.1-0.2-0.6,0.1-0.6,0.1s0.2-1.1,0.5-1.3c0.4-0.2,1,0,1,0v1.2
			C1792.9,922.8,1792.2,923,1792.1,922.8z"/>
		<linearGradient id="SVGID_5_" gradientUnits="userSpaceOnUse" x1="1805.2904" y1="917.9634" x2="1805.2904" y2="920.0789">
			<stop  offset="0.3392" style="stop-color:#C896AD;stop-opacity:0.9"/>
			<stop  offset="1" style="stop-color:#C588FF"/>
		</linearGradient>
		<path class="st6" d="M1804.6,918c0.2,0.3,1.4,0,1.4,0c0.4,0.2,0.6,1.6,0.6,1.6s-0.2,0.2-0.6,0.2s-1.7,0.3-1.7,0.3s-0.2-0.7-0.4-1
			S1804.5,917.7,1804.6,918z"/>
		<linearGradient id="SVGID_6_" gradientUnits="userSpaceOnUse" x1="1909.1943" y1="874.0538" x2="1909.1943" y2="875.5889">
			<stop  offset="0.3392" style="stop-color:#C896AD;stop-opacity:0.9"/>
			<stop  offset="1" style="stop-color:#C588FF"/>
		</linearGradient>
		<polygon class="st7" points="1909.6,875.1 1908.8,875.6 1908.8,874.5 1909.6,874.1 		"/>
		<linearGradient id="SVGID_7_" gradientUnits="userSpaceOnUse" x1="1792.7129" y1="923.8315" x2="1792.7129" y2="926.9081">
			<stop  offset="0.3392" style="stop-color:#C896AD;stop-opacity:0.9"/>
			<stop  offset="1" style="stop-color:#C588FF"/>
		</linearGradient>
		<path class="st8" d="M1791.9,923.8l0.3,1l1.8,0.6c0,0,0.4,1.4,0,1.5c-0.4,0.1-1.3-0.3-1.3-0.3s0-1.1-0.3-1.2
			c-0.3-0.1-1.1-0.5-1.1-0.5l0.2-1.1H1791.9z"/>
		<linearGradient id="SVGID_8_" gradientUnits="userSpaceOnUse" x1="1896.1282" y1="880.5939" x2="1896.1282" y2="883.3389">
			<stop  offset="0.3392" style="stop-color:#C896AD;stop-opacity:0.9"/>
			<stop  offset="1" style="stop-color:#C588FF"/>
		</linearGradient>
		<path class="st9" d="M1896.7,880.6l1,1.4c0,0,0.2,1,0,1.3s-2.3-0.6-2.9-0.7c-0.6-0.1,0-2,0-2H1896.7z"/>
		<linearGradient id="SVGID_9_" gradientUnits="userSpaceOnUse" x1="1724.1332" y1="933.2128" x2="1724.1332" y2="935.9078">
			<stop  offset="0.3392" style="stop-color:#C896AD;stop-opacity:0.9"/>
			<stop  offset="1" style="stop-color:#C588FF"/>
		</linearGradient>
		<path class="st10" d="M1722.6,934.6c0.4,0.1,0.9,0,0.9,0l0.2-0.6l1.1-0.7c0,0,0,0.2,0.6,0.7c0.6,0.6,1.3,1.2,1.3,1.2
			s-0.2,0.1-0.5,0.4c-0.3,0.3-1.2,0.2-1.2,0.2l-0.9-0.5c0,0-1,0.4-1.1,0.5s-1.4,0.2-1.5,0C1721.4,935.5,1722.2,934.4,1722.6,934.6z"
			/>
		<linearGradient id="SVGID_10_" gradientUnits="userSpaceOnUse" x1="1723.6798" y1="929.1823" x2="1723.6798" y2="932.59">
			<stop  offset="0.3392" style="stop-color:#C896AD;stop-opacity:0.9"/>
			<stop  offset="1" style="stop-color:#C588FF"/>
		</linearGradient>
		<path class="st11" d="M1725.1,932c-0.2-0.1-0.6,0.3-1,0.5c-0.4,0.2-0.7-0.1-0.8-0.3c-0.1-0.2-0.8-0.4-1.2-0.5
			c-0.4-0.1-0.6-0.6-0.6-0.6l0.8-1.1h0.9c0,0,0.6-0.7,0.7-0.9c0.1-0.1,0.6,0,0.6,0l0.4,1c0,0,0.5,0.7,0.8,0.7
			c0.2-0.1,0.2,1.5,0.2,1.5S1725.3,932.1,1725.1,932z"/>
		<linearGradient id="SVGID_11_" gradientUnits="userSpaceOnUse" x1="1684.2092" y1="944.584" x2="1684.2092" y2="946.8772">
			<stop  offset="0.3392" style="stop-color:#C896AD;stop-opacity:0.9"/>
			<stop  offset="1" style="stop-color:#C588FF"/>
		</linearGradient>
		<path class="st12" d="M1684.6,946.8c0,0-0.4,0.2-0.7,0c-0.3-0.2,0.3-2.2,0.3-2.2C1684.3,945,1684.6,946.8,1684.6,946.8z"/>
		<linearGradient id="SVGID_12_" gradientUnits="userSpaceOnUse" x1="1669.7289" y1="953.1959" x2="1669.7289" y2="953.3477">
			<stop  offset="0.3392" style="stop-color:#C896AD;stop-opacity:0.9"/>
			<stop  offset="1" style="stop-color:#C588FF"/>
		</linearGradient>
		<path class="st13" d="M1669.9,953.3c0.1,0.1-0.1,0.1-0.3,0C1669.7,953.2,1669.8,953.2,1669.9,953.3z"/>
		<linearGradient id="SVGID_13_" gradientUnits="userSpaceOnUse" x1="1722.9458" y1="926.7856" x2="1722.9458" y2="926.8014">
			<stop  offset="0.3392" style="stop-color:#C896AD;stop-opacity:0.9"/>
			<stop  offset="1" style="stop-color:#C588FF"/>
		</linearGradient>
		<path class="st14" d="M1722.9,926.8C1722.9,926.8,1722.9,926.8,1722.9,926.8C1723,926.8,1723,926.8,1722.9,926.8z"/>
		<linearGradient id="SVGID_14_" gradientUnits="userSpaceOnUse" x1="1890.0322" y1="848.7809" x2="1890.0322" y2="848.7871">
			<stop  offset="0.3392" style="stop-color:#C896AD;stop-opacity:0.9"/>
			<stop  offset="1" style="stop-color:#C588FF"/>
		</linearGradient>
		<path class="st15" d="M1890,848.8C1890,848.8,1890,848.8,1890,848.8C1890,848.8,1890,848.8,1890,848.8z"/>
		<linearGradient id="SVGID_15_" gradientUnits="userSpaceOnUse" x1="1830.5043" y1="883.0051" x2="1830.5043" y2="883.0177">
			<stop  offset="0.3392" style="stop-color:#C896AD;stop-opacity:0.9"/>
			<stop  offset="1" style="stop-color:#C588FF"/>
		</linearGradient>
		<path class="st16" d="M1830.5,883C1830.5,883,1830.5,883,1830.5,883C1830.5,883,1830.5,883,1830.5,883z"/>
		<linearGradient id="SVGID_16_" gradientUnits="userSpaceOnUse" x1="1882.5229" y1="842.7919" x2="1882.5229" y2="842.868">
			<stop  offset="0.3392" style="stop-color:#C896AD;stop-opacity:0.9"/>
			<stop  offset="1" style="stop-color:#C588FF"/>
		</linearGradient>
		<path class="st17" d="M1882.6,842.8C1882.5,842.8,1882.5,842.9,1882.6,842.8C1882.5,842.9,1882.5,842.8,1882.6,842.8z"/>
		<linearGradient id="SVGID_17_" gradientUnits="userSpaceOnUse" x1="1769.2228" y1="908.9247" x2="1769.2228" y2="909.5037">
			<stop  offset="0.3392" style="stop-color:#C896AD;stop-opacity:0.9"/>
			<stop  offset="1" style="stop-color:#C588FF"/>
		</linearGradient>
		<path class="st18" d="M1769.2,908.9c0.1,0.3,0.1,0.6,0.1,0.6S1769.2,909.3,1769.2,908.9z"/>
		<linearGradient id="SVGID_18_" gradientUnits="userSpaceOnUse" x1="1894.4449" y1="870.0121" x2="1894.4449" y2="870.2405">
			<stop  offset="0.3392" style="stop-color:#C896AD;stop-opacity:0.9"/>
			<stop  offset="1" style="stop-color:#C588FF"/>
		</linearGradient>
		<path class="st19" d="M1894.5,870.2c0,0.1-0.1,0-0.2-0.2C1894.5,870.1,1894.5,870.2,1894.5,870.2z"/>
		<linearGradient id="SVGID_19_" gradientUnits="userSpaceOnUse" x1="1783.5607" y1="836.5002" x2="1783.5607" y2="968.9976">
			<stop  offset="0.3392" style="stop-color:#C896AD;stop-opacity:0.9"/>
			<stop  offset="1" style="stop-color:#C588FF"/>
		</linearGradient>
		<path class="st20" d="M1647.1,961.2v7.8H1920v-88.4c-0.6,0.2-2.1-0.9-2.1-0.9l2.1-2c0,0-1.8-1.4-2.1-1.1s-1.1-2.3-1.1-2.3v-2.3
			l1.6-1.6l-2,0.8c0,0-0.1,0.1,0-0.8c0.1-0.9,1.5-0.8,1.5-0.8l-1.5-0.6l1.2-0.5c0,0-1.7,0.1-1.8-0.8c-0.1-0.9,0-1.8,0-1.8
			s0.4-0.8,0.9-0.4c0.5,0.3-0.3-0.9-0.3-0.9h-1.2c0,0-0.1-0.9,0-0.9c0.1,0,1,0,1,0l-0.2-0.9h-0.8c0,0-0.3-1,0-1.3s1.2,0,1.2,0
			l-1.3-0.9c-0.2-1,1-0.6,1-0.6l-1-1.1l0.3-0.9l-0.9-0.8l-0.3-3.2l-0.6,3.1l-1.2,0.8c0,0,0.4,0.8,0.4,1.1s-1,0.9-1.3,1
			c-0.4,0.1,0.7,0.7,0.7,0.7s0.5,0.5,0.2,0.9c-0.3,0.4-1,0.6-1,0.6l0.9,1l-0.2,1.1l-2.6,0.1l1.6,1.4c0,0,1,0.6,0.4,1.5
			s-1.1,1.6-1.1,1.6l-1.7-0.8l1.9,1.9c0,0,0.2,1.2,0.1,1.5s-2.4,1.1-2.6,0.9c-0.1-0.3-1.1-0.1-1.1-0.1s-0.5-1.2,0-1.4s1-0.7,1-0.7
			l0.3-1.2l0.6,0.3c0,0-0.5-1.2-1-1.3c-0.4-0.1-1.5,0-1.5,0v-1.2v-1.1h1c0,0-0.2-0.9-0.6-0.9c-0.4,0-0.9-0.4-0.9-0.4
			s-0.7-0.3-0.7-0.7c0-0.4,0.5-1.2,0.7-0.9c-0.1-0.2-0.7-0.9-0.7-0.9h0.9c0,0-0.8-1.1-1.2-1c-0.4,0.1-0.8-1.2-0.8-1.2v-1.9l-1.2-0.6
			l-0.9,1.4c0,0,0.9-0.4,1,0c0.1,0.4,0.4,1.8,0.4,1.8l-0.3,0.8l-1.3,0.4v0.9l-0.9-0.1l1.3,1.4l-0.9,0.4c0,0-0.5,1.2,0.1,1.3
			c0.7,0.1-1.2,0.9-1.2,0.9l-0.8,0.2l0.9,0.9h1.6l-1.6,1.6l-1.9-0.1c0,0,1.5,1.7,2,2c0.2-0.1,0.3-0.2,0.2,0c0,0.1-0.1,0.1-0.2,0
			c-0.3,0.3-0.7,0.8-0.7,0.8h-1.3c0,0,0.3,0.8,0.5,1.3c0.2,0.5,0.1,2,0.1,2s-0.2,0.4-0.5,0.5c-0.4,0.1-2.4,0.3-2.4,0.3l1.3,1.3
			c0,0,0.8,1.5,0.7,1.9c-0.1,0.3-1,0.9-1,0.9l-0.7-0.2c0,0,0.2-1.4,0.5-1.3c0.4,0.2,0.3-1.1-0.5-1.3c-0.9-0.2-2.1-0.4-2.1-0.7
			c-0.1-0.3-1.3-0.6-1.3-0.6s-0.3-1.3,0-1.5c0.3-0.3,1.2-0.5,1.2-0.5s0.5-0.8,0.1-1.4c-0.4-0.6-0.9-1-1.7-0.9
			c-0.8,0.2-1.4-0.3-1.4-0.3V870l1.7-0.6c0,0,0.9,0.4,1.3,0.6c-0.3-0.4-0.7-1.4-0.8-1.7c-0.1-0.3-0.1-0.3-0.1-0.3l-1.1-0.7l-1.1,0.4
			c0,0-0.9-0.2-0.8-0.4c0.1-0.2,0.3-1.2,0.3-1.2s0.8-1,1.2-0.6c0.4,0.4,1.4,1.4,1.4,1.4s0.4-0.9-0.1-1.4c-0.5-0.5,1.3-1.4,1.3-1.4
			l-1.7-0.1l-1.5,0.2l-0.9-0.2c0,0-1.2-0.2-1.2-2c-0.1-1.8,0.5-2.7,0.5-2.7l0.4-1.1l1.4,0.5c0,0-0.5-1.1-1.1-1.2
			c-0.6-0.1-2.4,0.8-2.5,0.1c-0.1-0.7,0.3-1.9,0.3-1.9s0.9,0.1,1.1-0.5c0.2-0.5,1.1-1.2,1.1-1.2l0.4-1.1c0,0-0.8-0.2-1,0
			s-1.9-0.1-1.9-0.1s-0.4-0.6-0.2-0.9c0.2-0.3,0.6-0.6,0.6-0.6l0.8-0.5c0,0,1-0.7,1.1-0.9s0.3-0.7,0.3-0.7s-0.4-0.4-0.6-0.4
			c0,0,0,0,0,0c0,0,0,0,0,0c0.1,0,0.9-0.3,0.9-0.3l-1.3-0.2l-0.9,0.8h-0.9c0,0-0.8-0.2-0.6-0.8c0.2-0.6,0.6-1.2,0.6-1.2l1-0.5
			l1.1-1.5c0,0-1,0.5-1.1,0.5c-0.2,0-1,0.1-1,0.1h-0.6c0,0-0.5,0.5-0.3-0.5c0.3-1,1.5-1.9,1.5-1.9l0.6-0.3l-0.3-0.8l-0.9-0.3
			c0,0-0.6-0.3-0.6-0.5s-0.1-1.9-0.1-1.9l0.3-1.6l-0.6-1.3h-0.8l-0.2,1.1c0,0-0.2,1.9-0.2,2.1c0,0.2-0.1,1.3-0.3,1.5
			c-0.2,0.2-1.8,0.2-1.9,0.4c-0.1,0.1-0.7,0.9-0.9,1.2c0.1-0.1,0.3-0.1,0.7-0.2c0.8-0.1,1.4,0.3,1.4,0.3l-0.1,1.6c0,0-0.3,1-0.6,1
			c-0.4,0.1-1.1-0.1-1.4-0.1c-0.3,0-1.3,0.2-1.3,0.2v0.7l0.6,0.4l0.8,0.1l0.6,1c0,0,0,1-0.2,1.5c-0.1,0.5-1.1,1.1-1.1,1.1l-2.1-0.3
			l0.3,1.8c0,0,1.3,1,1.4,1.5c0.1,0.5,1.1,0.8,1.1,1.1c0,0.3-1.3,0.9-1.3,0.9l-1.5-0.3l-0.8,0.2l0.9,2.8c0,0,0.4,0.8,0.3,1.5
			s0.5,3-0.5,3.1s-2.8,0.9-2.8,0.9l-1.1,1.4c0,0,0.6-0.4,1.1,0.1c0.4,0.5,0.7,2,0.9,2.3c0.2,0.3,1.1,1.4,1.1,1.4s1,1.5,0.6,1.5
			c-0.3,0.1-5.8-0.1-5.8-0.1l0.3,1.6c0,0,2.4,1,2.2,1.9s1.1,2.8,1.1,2.8s-0.3,1-0.5,1s-1.7-0.4-1.7-0.4s-0.2-1.4-0.9-1.9
			s-1.2,0-1.2,0s-0.2,0.6,0,1.2s-0.1,2.3-0.1,2.3s-0.7,0.5-0.9,0.4c-0.2-0.1,0-1.6,0-1.6l-0.1-2.3l-0.8-0.8l-0.5-2l0.5,3.7l-0.1,2.8
			l-0.4,1.3l-1.9,0.4c0,0-1.3-0.3-1.2-0.9c0.1-0.6,2.3-1.2,2.6-0.9c0.2,0.3,0.7-1.2,0.4-1.5s-1.2-0.9-1.2-0.9s-1.3,1-2,0.3
			c-0.7-0.7-1.3-1-0.8-2.2c0.5-1.2,1.7-2.4,2.1-2c0.4,0.3-0.5-2-1.2-1.6c-0.7,0.3-2.3,0.1-2.3,0.1l1.3-2.1l1.5-2.1l0.5-1.1
			c0,0-1.5,0.9-2.5,0.8c-1-0.2-1-2.6,0-2.5s1.9,0.3,1.9,0.3s-0.4-1.7-1.3-1.6c-0.9,0.1-2.8,0.3-2.7-0.1c0.1-0.3,1.5-2.8,1.6-2.5
			c0.1,0.3,1.4,0.3,1.4,0.3s-1.2-1.1-1.6-1.3c-0.5-0.2-1.6-0.8-0.9-1.4c0.7-0.6,2-0.3,2-0.3s-0.1-1.6-0.5-1.6s-2,0.3-1.9-0.3
			c0.1-0.7,0-2.1,0-2.1s0.4-3.9,0-3.9s-0.8,2.7-0.8,2.7l-0.9,2.3l-1.7,0.9v2.2l1.2,1.3l-1.2,0.9l-1.6-0.4c0,0-0.1,1.2,0,1.4
			c0.1,0.3,0.8,1.3,0.8,1.3s0.6,2.2,0.1,2.3c-0.5,0.1-2.9,0-2.9,0s-0.6,1.3,0.4,1.8s1.9,2.3,1.8,2.5c-0.1,0.2-2.9,0.9-2.9,1.6
			s0.5,3.6,0.5,3.6l-0.2,2.2c0,0,0.6,1.9-0.3,2c-0.9,0.1-2.4-0.3-2.4-0.3s-0.5,2.2,0,2.7c0.5,0.5,3.3,2.2,2.7,3.3
			c-0.6,1-2.1,1.5-2.3,1.6s-1.2-0.4-1.3-0.7c0,0-0.1-1.5,0.4-1.5s-0.4-0.8-0.4-0.8l-0.5,0.1v-1.4l0.7,0.5h0.7l-1.1-1.5l-0.7-0.7
			l0.7-0.5l-0.7-0.7l0.5-0.8l-0.5-0.8v-1.4l-0.7-0.9v-2.6l-0.6,1.7v1.1l-1.4,0.5l1.2,0.9l-0.4,0.8l-0.7,0.3c0,0,0.1,1.3,0.5,1.4
			c0.4,0.1-0.1,0.8-0.1,0.8l-1,0.2l-0.6,1.2l0.6,1.1l-0.6,0.9l-0.8,0.8l0.4,2.2c0,0-1-0.5-1.2,0.5c-0.2,1,0.3,2.8,0.3,2.8l0.5,1.1
			l-0.9,0.6c0,0-0.2-1-0.4-1.5c-0.1-0.5-1.6,0-1.6-1.1s0.4-1.8,0.4-1.8s0.6-0.6,0.8-0.6s1.2-0.6,1.2-0.6s-0.9-0.6-1.2-0.4
			c-0.3,0.2-1.7-0.1-1.7-0.1s-0.4,0.2-0.2-0.9c0.1-1.2,1-1.4,1-1.4l1.2,0.7c0,0,0-0.9-0.3-1.4c-0.3-0.4-1.3-1.2-1.3-1.2
			s-0.8-0.9-0.6-1.2s2.1-0.4,2.2-0.2c0.1,0.3,0-1.9-0.8-1.8c-0.8,0.1-1.8-0.3-1.8-0.3s0.2-4.8,0-4.9c-0.2-0.2-1.1,1-1.1,1v2.6
			c0,0-0.4,1.3-0.9,1.4c-0.5,0.1-1.6,0.9-1.6,0.9l-1-1.1c0,0-0.4,0.9,0,1.3c0.4,0.4,1.2,0.8,1.2,0.8l0.6,0.9l0.1,1c0,0,0.1,1-0.9,1
			c-0.9,0-1.6,0-1.6,0v0.9l0.7,0.9l0.1,1.9c0,0-1.2,0.3-2.1,0.4c-0.9,0.2-0.9,0.9-0.9,1.2s1.1,1.3,1.1,1.3s1,0.9,0.8,1.5
			c-0.2,0.6-1.9,0.7-1.9,0.7s-1,0.3-1,0.9c0.1,0.5,1,4,1,4s0,1.9-0.1,2.2c-0.1,0.3-0.4,1.4-0.9,1.4s-1.3,0-1.3,0l1.3-1.5
			c0,0-1.8,0.4-2-0.2s0-1.8,0-1.8l1.6,0.3l-1.7-1.4l1-0.6c0,0,0.3-0.8-0.2-0.9c-0.5-0.2-1.6,0.2-1.7-0.3c-0.1-0.4,0.9-1.4,0.9-1.4
			s-0.8-1.3-0.9-1.1c-0.1,0.2-0.5-0.6-0.3-0.9c0.2-0.3,1.4,0.3,1.4,0.3s-0.8-1.4-1-1.4s1.2-0.2,1.2-0.2l-1.6-0.6l0.8-1l0.4-1
			c0,0-0.7-0.5-1.2-0.3s-0.4-0.9-0.4-0.9l1.2,0.4c0,0-1-1.1-1.2-1.2c0,0,0,0,0,0c0,0,0,0,0,0c0.2-0.1,0.8-0.4,0.8-0.4l-0.9-0.9
			l-0.5-3.1c0,0-0.9,2-0.7,2.5c0.2,0.4-1.1,0.7-1.1,0.7l0.9,0.7c0,0-0.1,0.7-0.5,0.9c-0.4,0.2-1.2,0.6-1.2,0.6s0.9-0.1,0.9,0.5
			s-0.2,1.6-0.2,1.6h-0.7v2.8c0,0-0.3,1.4-1.1,0.8s-0.5-2.5-0.5-2.5s0.8,0.3,0.9,0c0.1-0.3,0.6-1.2,0.4-1.7s-0.6-1.2-0.6-1.2
			s-1.8,0.2-1.7-0.3s0.2-1.1,0.2-1.1s1.3-0.9,1.5-1.2c0.2-0.3,0.9-1.6,0.9-1.6l0.5-1c0,0-0.6,0.6-1.1,0.8c-0.4,0.2-1.6,0.3-1.6,0.3
			l-0.5-0.5c0,0-0.8-0.5,0.2-1.4c1-0.9,1.7-1.1,2-1s1,0.3,1,0.3s-0.8-1.7-1.2-1.6c-0.5,0.1-3.1,0-3.1,0s0.5-0.7,0.7-1.2
			s1.5-0.9,1.7-0.9s0.7,0.3,0.7,0.3s-0.9-1.6-1.1-1.6s-0.9-0.1-0.9-0.8c-0.1-0.7,0.8-1.2,0.8-1.2l1.2,0.1c0,0-0.6-1.5-0.9-1.5
			s-2,0.1-2.1-0.6c-0.2-0.7,0-2.2,0-2.2l0.3-3.4c0,0-0.6-0.5-0.8,0.1c-0.2,0.6-1.1,3.1-1.1,3.1l-0.2,1.3c0,0,0,0.7-0.8,0.9
			c-0.9,0.2-1.3,1-1.3,1s0.6,0.9,1.1,0.9s0.6,0.9,0.2,1.8c-0.4,0.9-0.4,1.3-1.1,1.4c-0.6,0.1-1.7-0.6-1.9-0.3
			c-0.2,0.3,0.6,0.9,0.7,1.2c0.1,0.3,0.6,0.2,0.6,1.5c0,1.3,0.3,1,0,1.3s-0.8,0.2-1.7,0.3c-0.9,0.1-1.3,0.2-1.3,0.2s-1,0.3,0,0.9
			c1,0.6,1.4,2.1,1.5,2.3c0.1,0.2,1.3,1,1.1,1.5s-2.7,0.3-2.7,0.3s-0.8,1.3-0.8,1.5c0,0.2,1.6,5.6,1.1,6c-0.5,0.4-2.7,0.4-2.7,0.4
			s-0.6,4.2,0.7,4.9c1.3,0.7,1.6,2,1.3,2.3c-0.3,0.3-2.3,0.6-2.5,0.3c-0.2-0.3,0-1.9,0-1.9l0.9,0.1c0,0-0.6-0.9-1-1
			c-0.4-0.2-0.7-0.7-0.8-0.9c0-0.2,1.2,0.1,1.2,0.1l-1-0.9l0.7-0.6l-0.9-0.7c0,0,0.3-1.1,0.5-1c-0.1-0.2-0.3-0.7-0.5-1.6
			c-0.3-1.5-0.6-1.5-0.6-1.5s0.3,1.5,0,1.8s-1.1,1.1-1.1,1.1l0.9,0.2l-0.4,1.2c0,0-0.5,1.3-0.9,1.1s0,0.7,0.6,0.5
			c0.6-0.2-0.7,1.3-0.7,1.3l-0.8,1l-0.9,1.4c0,0,1.3,0.5,1.3,0.8s-2.2,0.5-2.2,0.5s1.7,0.1,1,2c-0.7,1.9-2,1.9-2,1.9
			s0.6,1.8,1.1,2.3s0.6,1.9,0.2,2s-2.6-0.6-2.6-0.6s2.1,2.4,1.5,3.1c-0.6,0.7-2.1-0.8-2.1-0.8s-0.4,2.3,0,2.5
			c0.4,0.2-0.9,1.3-0.9,1.3s2,1.4,1.7,2.4c-0.3,1-1.5,0.7-1.7,0.6s0.2-1.6-0.5-1.6c-0.6-0.1-1.2-1.2-1.1-1.6c0-0.4,1,0.6,1,0.6
			s-0.2-1.6-0.6-1.9s0.6-0.9,0.9-0.5s0.5-0.8,0-1c-0.6-0.2-1.8,0.9-1.8-0.2s0.5-1.7,0.7-1.5c0.2,0.2,0-1.1-0.2-1.1s0.9,0.1,0.9,0.1
			l-1-0.8c0,0-0.2-0.9-0.1-1.1c0.2-0.2,0.8-0.1,0.8-0.1s-1-1-1.2-1.5s-1.2-1.3-0.5-1.5c0.7-0.2-0.4-0.7-0.5-1c0-0.3-0.6-1.3,0-1.2
			c0.6,0.1,0.1-1,0.1-1l-0.2-2.1l-0.5-1.5c0,0-0.6,2.6-0.6,2.8c0,0.3-0.6,0.6-0.9,0.7c-0.2,0.1,0,1.3,0.2,1.5s-1.1,0.9-1.1,0.9
			s1.4,0.2,1.3,0.6c-0.1,0.3-0.9,1.3-0.9,1.3s0.2,0.4-0.7,0.9c-0.9,0.5-1.1,1.3-1.1,1.3s1.6-0.9,1.7-0.6s-0.2,1.5-0.3,1.5
			c-0.1,0.1-1.4-0.1-1.4-0.1s0,1.9,0.2,2.2s0.4,1.8,0,1.9c-0.4,0.2-1.7-0.2-1.7-0.2s1.6,2.2,1.5,2.6c-0.1,0.4,0.2,1.4-0.1,1.5
			c-0.4,0.2-2.6-0.7-2.8-0.4c-0.2,0.3,2,1,2,1.6c0,0.6-0.3,1.8-0.3,1.8h-0.9c0,0-0.7-0.7-0.9-0.6s-0.4,1.1-0.6,2.1s-0.6,2.8-1.3,2.6
			c-0.6-0.2-1.3-1.2-0.9-1.7c0.3-0.5-0.1-1.8-0.1-1.8s0-1.2,0.3-1.3s1.4,0.3,1.4,0.3s-0.9-1.5-1.1-1.4s-0.7-0.5-0.7-0.5l0.8-0.7
			v-0.6l-0.5-0.1l-0.5-1.1c0.7-0.2,0.2-0.7,0.2-0.7s-0.2-0.1-0.3-0.6c-0.1-0.5,0.5-0.3,0.5-0.3s-0.2-1-0.5-1c-0.3,0-0.6-0.2-0.6-1.7
			c0-1.5-0.4-0.3-0.4-0.3s0.1,1.5,0,1.6c-0.1,0.2-1.1,0.7-1.1,0.7s-0.4,0.4,0,0.7c0.4,0.3,0.6,0.9,0.5,1c-0.1,0.1-1-0.1-1.1,0.5
			c-0.1,0.6,0.2,1.6,0,1.8c-0.2,0.2-1,0.8-1,0.8s1,0.2,0.9,0.7c-0.1,0.6-0.5,1.5-0.5,1.5l-0.9,0.4c0,0,0,2.5,0,2.6s0.4,1.6-0.9,1.5
			c-1.3-0.1,0,1.4,0,1.4s1.6,1.5,0.8,1.5c-0.8,0-1.1,0-1.1,0l-0.3-0.6h-1.2c0,0-0.6-1.7-0.3-1.6c0.4,0.1,1.2,0.7,1.2,0.7
			s-1.1-1.7-1.5-1.9c-0.4-0.1-0.7-1.1-0.6-1.3c0.1-0.2,1.3,0.3,1.3,0.3l-1.3-1.6h1.1c0,0-1.1-2.1-1.4-2.1c-0.3,0-0.6-1.4-0.3-1.7
			s-0.6-0.7-0.6-1c-0.1-0.3,0.4-1.3,0.4-1.3l0.9,0.5c0,0-0.6-1.4-0.8-1.4c-0.2,0-0.8,0.3-0.8-0.2c0-0.6,1.2-0.6,1.2-0.6
			s-0.6-0.9-0.9-1c-0.2-0.1-0.2-0.6-0.3-1c-0.1-0.3,0.8-0.3,0.8-0.3l-0.8-0.9c0,0-0.4,0.1-0.4-0.6c0.1-0.6,1.3-0.2,1.3-0.2
			s-1.3-1.2-1.3-1.2c0,0,0-2.3,0-2.3s-0.4-0.5-0.6-0.1c-0.2,0.3,0.4,2.1,0,2.3c-0.4,0.2-1.4,0.5-1.6,0.9c-0.2,0.4,1,0.5,1,0.5
			l-0.6,0.9l-1.9,0.9c0,0,1.7-0.5,1.7-0.2c0.1,0.3-0.1,1.4-0.1,1.4l-0.6,0.5l0.2,1.8l-0.1,1c0,0-0.8,0.7-0.9,0
			c-0.1-0.7-0.6-1.2-0.6-1.2l1.1-1l-0.3-0.9c0,0-1.1,0-1.2-0.2c-0.1-0.2,0-1.7,0-1.7l1.1-0.2c0,0-1.4-0.3-1.5-0.8c0-0.5,0-1.9,0-1.9
			l0.4-0.6l-0.7-0.1l-1.6-3.1l0.2,3.2l0,1.9l-1.8,1.2l2-0.3l-1.2,1.3l1.1-0.1c0,0,0.3,1.4-0.4,2.4s-2.4,1.3-2.4,1.3s2.1,0.2,2.1,0.6
			c0,0.3-1.7,0.8-1.7,0.8l-0.7,0.8c0,0,1-0.3,1.5-0.1c0.4,0.3,0.4,0.9,0.2,1.1s-1,0.6-1,0.6s0.8,1.4-0.3,1.9
			c-1.1,0.5-0.9-1.5-0.9-1.5l1.6-1.1c0,0-1.2,0.1-1.6-0.2s-0.8-0.7-0.5-1.1c0.2-0.4,1.2-1,1.2-1h-1.1l1.9-2.2c0,0-2.4,1.8-2.9,1
			c-0.4-0.8,0.7-1.6,0.7-1.6s-1.4-0.1-1.5-0.6c-0.1-0.5,0.7-1.7,1.4-1.3c0.3,0.2,0.5,0.4,0.6,0.7c-0.2-0.8-0.6-2.1-1-2.3
			c-0.6-0.2,1.2-1.4,1.2-1.4s-3.9,0.7-3.7-0.3c0.1-1,0.9-1.7,0.9-1.7l0.5-0.9l-0.3-0.6c0,0-0.9,0.6-1.1,0.2c-0.2-0.4,0-1.4,0-1.4
			s1.1,0.2,1.1,0.2s0.5-0.3,0.1-0.6c-0.4-0.3-1-0.9-1-0.9s-0.2-0.2-0.3-0.5c-0.1-0.3,1.4,0,1.4,0s-0.9-1.1-1.4-1.1s-0.5-0.8-0.4-0.9
			c0.2-0.1,1.5,0.2,1.5,0.2s-0.3-1.1-1.2-1.1c-0.9,0-0.6-0.3-0.5-0.7c0.2-0.3,0.9,0.1,0.9,0.1s-0.3-1.5-0.6-1.6
			c-0.3-0.1-0.6-1-0.4-1.1c0.2-0.1,0.9,0.7,0.9,0.7l-1.3-3.2l-0.8,2.2c0,0,0,1.1,0.4,1s0,0.7-0.4,0.7s-1.1,0.5-1.1,0.5
			s0.4,1,0.9,0.7c0.4-0.2-0.9,1-0.9,1l-1,0.6c0,0,0.8,0.3,1.3,0.1c0.6-0.3-0.6,1.3-0.6,1.3s-1.1,0.7-1.1,1.1c0,0.3,0.7,0,1.4,0
			c0.7,0-1.6,1.3-1.6,1.3s0.3,0.6,1.1,0.5c0.8-0.1-0.8,1.8-0.8,1.8s0,1.7-0.5,1.8s-0.9-0.3-0.9-0.3s0.2-0.5,0-0.9s-1.1-1-0.5-2.3
			s1.2-1.6,1.2-1.6l0.3-1.5c0,0-0.2-0.4-0.6-0.3c-0.4,0.1-1.4,0.1-1.4,0.1s-1.5,0.4-1.2-0.3s0.9-1.5,0.9-1.5l1.9-0.4
			c0,0,0.2-1.3-0.9-1.5s-2.5,0.1-2.5-0.4s0.4-1.6,0.4-1.6s0.2-1.5,0.9-0.9c0.7,0.6-0.2-1.3-0.6-1.4s-1.3,0.9-1.3,0.9s-0.9,0-0.5-1.5
			c0.3-1.5,1.8-0.5,1.8-0.5s-0.9-1.6-1.1-1.8s0.6-0.7,0.6-0.7l-1.5-0.1l-0.7-4.2c0,0-0.9-0.1-0.9,0.4c-0.1,0.5-0.1,3.5,0,3.6
			c0.1,0.2,0.4,1.4-0.1,1.3c-0.5-0.1-2.3,0.5-2.4,1.2s1,0.3,1.7,0.2c0.6-0.1,0.4,1.3,0.4,1.3l-1.5,1.1c0,0,1.1,0.2,1.5,0.6
			c0.4,0.5-0.4,1.3-0.4,1.3l-2.2,0.1l-0.4,1c0,0,0.9-0.3,1.9,0.2c1,0.5,0.3,1.5,0.3,1.5s-1.9-0.5-2.2,0.1c-0.3,0.6,1.5,0.6,1.7,1.1
			c0.2,0.5,0.6,1.6,0,1.9c-0.6,0.3-1.7,0.8-1.7,0.8s-0.6,2,0,2c0.6,0.1,0.4,1.4,0.4,1.4s-1.7-0.4-2,0.2s1,4.3,0.4,4.8
			c-0.6,0.5-0.6,2.2-0.6,2.2l0.2,0.7l-0.2,0.9l-1.1,0.3c0,0,0-0.5-0.4,0.7c-0.4,1.3-1.6,2.5-1.6,2.5s0.7,0.6,0.9,0.5
			c0.1-0.1-0.5,1.5-0.5,1.5l1.5,0.9c0,0,0.5,1.5-0.2,1.4c-0.7-0.1-1.1-0.3-1.6-0.3s-1.1,1.4-1.1,1.4l0.4,0.9c0,0-0.1,1.1-0.3,1.3
			c-0.2,0.2,0.7,0.8,0.5,1.4c-0.2,0.6-0.4,1.3-0.4,1.3l0.2,0.7c0,0,1.2,0.5,1.1,0.7c-0.1,0.2-0.8,0.3-0.8,0.3l-1.7,0.7v-2l0.9,0
			c0,0-0.4-0.9-0.6-0.9c-0.2,0.1-0.3-2.1-0.1-2c0.2,0.1,0.6,0.4,0.6,0.4s-0.2-1-0.5-1c-0.3,0-0.9,0.4-1-0.3
			c-0.1-0.7,0.7-0.6,0.7-0.6l-0.5-0.7l0.7-0.1l-0.8-0.6l0.9-1.2c0,0-1.1,1.1-1.4,0.8c-0.2-0.3,0.7-1.7,0.7-1.7l1.1,0.4
			c0,0-1.5-1-1.6-1.4c-0.1-0.4,0.8,0,0.8,0l-0.9-1l1.4,0.3c0,0-0.8-0.7-1.1-1c-0.3-0.3,0.5-0.8,0.5-0.8l-1-0.6l-0.3-1.3l0.9,0.1
			l-0.9-1.3l-0.3-2.3l-0.5,1.7l-1.7,1.4l1.2,0.3l-0.9,1.1l-0.9,0.3l-0.6,0.6c0,0,0.3,0,1,0s0.1,1.4,0.1,1.4s-1.5,0.2-1.7,0.5
			c-0.2,0.3-0.2,0.8-0.2,0.8s0.8-0.6,1.3-0.4s-0.4,0.4-0.4,0.4l0.6,0.7c0,0,0.4,0.2,0.2,0.9c-0.2,0.8-1.1,0.7-1.1,0.7
			s-0.4,0.5-0.4,1.5s0,2.1,0,2.1l-1.4-0.3c0,0,0.2,1.4,0.6,2c0.4,0.6,0.7,1.4,0.6,1.6c-0.2,0.1-0.8,1-1,0.4s-0.4-1.2-0.8-1.2
			c-0.4,0-1-0.4-1-0.4s-0.3-0.6-0.2-0.9c0.2-0.3,1,0,1,0s0.1-1.4-0.5-1.5s-1.2-0.6-1.2-0.6v-0.8c0,0,1.2,0.5,1.2,0.6
			c0.1,0.1,0.1-1.1-0.2-1.2c-0.3-0.1,0.1-0.5,0.3-0.4c0.2,0.1,0.6,0.4,0.6,0.4s-0.2-0.9-0.8-1c-0.6-0.2,1.1-0.4,1.1-0.4
			s-0.9-1.3-1.6-1.3c-0.7,0-1.3,0.9-1.3-0.2c-0.1-1,1.1-1.1,1.1-1.1s-0.2-1.5-1.2-1.6c-1.1,0,0-1.1,0-1.1l0.9,0.3
			c0,0-0.4-1.6-0.8-1.6c-0.4,0-0.7-0.9-0.6-0.9s1.5,0.5,1.5,0.5s-1-1.5-1.5-1.4c-0.5,0-0.5-0.7-0.5-0.7h1.2c0,0-0.2-0.8-0.8-0.8
			c-0.6,0-0.4-0.8-0.4-0.8l1.2,0.1c0,0-0.4-0.9-0.5-1c-0.2,0-0.6-0.9-0.2-1.2c0.5-0.3-0.5-0.2-0.5-0.2s-0.2-2.7-0.4-2.7s0,2.7,0,2.7
			l-0.8-1.2c0,0,0.2,1.3,0.4,1.4c0.1,0.1-1.5,0.9-1.5,0.9l0.8,0.2l-0.1,1.4c0,0-1,0.2-1.3,0.6s-0.3,0.9-0.3,0.9s0.9-0.9,1-0.6
			c0.1,0.3-0.1,1.8-0.1,1.8s-1.2,0-1.4,0c-0.2,0.1-0.5,0.3-0.5,0.5c0,0.2,0.5,0.2,0.5,0.2l0.5,0.2l-0.3,0.8c0,0,0.7-0.3,0.7-0.1
			s0,1,0,1s-0.8,0-0.9,0c-0.2,0-0.9,0.4-0.9,0.4l-0.2,1.3l1.2-0.3l-0.1,1.2l-0.4,1l-0.9,0.1l-0.7,0.6l-0.5,0.8l0.9-0.3l0.2,0.6
			l-0.6,0.6l-0.2,0.8l1-0.5l0.3,0.5c0,0,0.3,1-0.2,1c-0.5,0-1.5,0-1.5,0l-0.9,0.5l-0.5-0.5c0,0-0.2,0.6,0,0.6c0.2,0,0.9,1.2,1,1.2
			c0.2,0,0.5-0.5,0.6-0.2c0.2,0.3,0.7-0.1,0.4,0.9c-0.2,0.9-0.8,0.7-0.9,0.7c-0.1,0-0.5-0.4-0.8-0.4s-0.5,1.6-0.5,1.6l-0.6,1
			l-0.5,0.3c0,0-0.6-0.9-0.8-0.9c-0.2,0-1.3,0-1.3,0s0.5-1,0.8-1c0.3,0.1,0.5-0.1,0.6,0.1c-0.1-0.1-0.6-1.2-0.6-1.2l-1-0.4v-1.2
			c0,0-0.8-0.9,0-1c0.8-0.1-0.4-1-0.4-1l-1.3-0.1c0,0-0.7,0.3-0.6-0.5c0,0-0.6-1.1,0.4-1.4s1.3-1.4,1.3-1.4s0.6-0.9,1-0.8
			c0.4,0.1-0.4-1-0.8-0.9s-1.7,0.7-2.1,0.3c-0.3-0.4,0-1.1,0-1.1l0.6-0.5c0,0,0.9-0.8,0.9-1s1-0.1,1-0.1s0-1.4-0.6-1.4
			c-0.6,0.1-3.1,0.5-3.1,0.2c0-0.3,0.9-1.3,0.9-1.3l0.5-0.7l1.1,0.1c0,0,0-1-0.5-1.1c-0.6-0.1-1.5-0.4-1.5-0.4s-0.4-0.8-0.2-1.1
			s2-0.7,2-0.7s0.1-0.8-0.7-1.2s-1.5-0.9-1.5-0.9l0.5-2.1l-0.2-3.1c0,0-0.7,1-0.8,1.4c0,0.5-0.2,1.8-0.3,2.2
			c-0.1,0.3-0.9,1.6-0.9,1.6l-1.7,0.9l-0.4,1c0,0,1.4-0.1,1.5,0.3c0.1,0.5-0.5,1.6-0.5,1.6l-2.6,0.3l-0.5,1.2c0,0,1.6-0.5,1.8-0.1
			c0.2,0.3-0.5,1.5-0.5,1.5l0.9,0.3c0,0-0.1,0.7-0.2,0.9c-0.1,0.2-3,0.7-3,0.7l-0.6,0.6l0.7,1l0.7,0.6c0,0-0.2,1,0.2,1
			s1.3,1.3,1.3,1.3s0.6,0.6,0,1c-0.6,0.4-2.1,0.1-2.8,0c-0.7-0.1-1.5,0.3-1.5,0.3l1.1,0.3l-0.8,1l1.5-0.3c0,0,0,1.4-0.2,1.7
			c-0.2,0.3-0.1,3.7,0,3.7c0.1,0,0,1.4-0.7,1.6c-0.6,0.2-2.8,0.2-2.8,0.2l0.8,1.4c0,0,2.7,3.6,2.2,4.6s-1.8,1.1-1.8,1.1
			s0.2-1.6,0.2-1.9s-0.2-1.3-0.6-1.5s0.1-1,0.1-1l-1.1-0.9l-1.4-0.1l-1.2-0.5l0.2-1.3l1.5-1.4l0.6-0.9l1.5,0.1c0,0-0.9-0.3-1.2-0.7
			c-0.3-0.3-1.4-0.2-1.4-0.2l-0.8-0.1l0.6-1.4l1.1-0.3l1.6,0.3l-1.5-1.8l0.3-1l-1.1-0.7c0,0-1.2-1.4-0.3-1.2
			c0.9,0.2-0.2-1.1-0.2-1.1l1.9,1l-1.8-1.9c0,0-0.5-0.8-0.5-1.3c0-0.5-0.9-1.3-0.9-1.3s-1.1-1.8-0.9-2.2c0.2-0.3,1.1-2,1.1-2
			l-1.2,0.5l-0.5-3.8l-0.3,3.4l-0.9-1l0.5,2.7c0,0-0.1-0.2-1,0.5c-0.9,0.7-1.7,2.6-1.7,2.6l1.7,0.3l-0.4,1.9l-1.6,0.4l-0.7-0.2
			l-0.8,1.1c0,0,0.8,0.2,1.2,0.2c0.4-0.1,0.5,0.9,0.4,1.1c-0.1,0.3,0.1,1.7-0.2,1.9s-1.5,1-1.5,1l-1.5-0.1c0,0,0,1.1,0.8,1.4
			s1.7,1.8,1.7,1.8s0.2,2,0,2s-1.7-0.8-2.6-0.1c-0.9,0.7-0.9,2.5-0.9,2.5l0.9-0.5c0,0,0.4,0.6,0.4,1.1c0,0.5-0.3,2.2-0.4,3.4
			s-2.3,1.8-2.3,1.8h-1.5l-0.5,1c0,0,0.2-0.1,1,0.3c0.9,0.4,2.1,1.4,2.1,1.9s0.7,1.5,0.7,1.6c0,0.2,0.1,1.7-0.5,1.8
			c-0.6,0.1-4.5-0.3-4.7,0c-0.2,0.3,2.5,2.2,2.5,3.4c0,1.3,1.3,2.9,1.3,2.9l-1.9,0.6l-1-1.1l-0.8-1.6c0,0-0.4,1.7-1,2
			s-0.8-1.3-0.5-1.5s0.9,0.1,0.9,0.1l-1.3-1.2l0.9-0.4l-0.9-0.7l0.9-0.5l-0.9-1.1l1.7,0.5l-1.7-1.8l0.7-0.6c0,0-0.2-0.1-0.7-0.4
			c0,0-0.2-0.8-0.5-1.2c-0.2-0.4,0.8-0.4,0.8-0.4s-0.6-1-0.8-1.3c-0.2-0.3,0.8-0.4,0.8-0.4s-1.3-0.9-1.3-1.6c0-0.8-0.7,1.4-0.7,1.4
			l-1,0.5l1,0.3c0,0-0.1,1.3-0.6,1.3s0.3,0.8,0.3,0.8l-1.2,0.4l1.1,0.9l-1.6-0.2l-1.9-0.6l1.1-1.4c0,0,0.5-0.1,0.6,0.1
			c0.1,0.2,0.7-1.3-0.2-1.3s-1.5-1.5-1.5-1.5s0.4-0.6,0.6-0.6c0.2,0,1,1,1,1l-0.4-1.5h1.4l-2.3-0.6c0,0-1-1.5-0.7-1.9
			c0.2-0.4,0.5-3.1,0.5-3.1l-1-0.6l-0.8,3.6c0,0-0.2,1-0.4,1.1c-0.2,0.1-2,1-2,1l-0.6,1h2.1l-0.3,2.1l-1.8,0.3c0,0-0.4-0.4-0.7,0.1
			c-0.3,0.5-1.3,1.5-1.3,1.5l1.5-0.3l1.3,1.3c0,0-0.3,1.6-0.9,1.8c-0.5,0.2-2.4,0.2-2.4,0.2l-1.3,1.2h1.3c0,0,0.2,0.9,0.1,1.2
			c-0.1,0.3-0.4,0.5-0.5,0.6c-0.2,0.1-1.3,0.5-1.3,0.5l1.2,0.3l-0.1,0.9l-1.1,0.8l-1,0.9h1l-0.1,2.6h-1.8l1.3,1.1
			c0,0,0.8,0.9,0.6,1.5c-0.2,0.6-1.6,0-1.6,0s-0.1,4.3-0.3,4.5c-0.2,0.2-1.5,0.9-1.5,0.9s0,1.7-0.6,1.1s-0.7-1.9-0.7-1.9l1.5-0.3
			c0,0,0.4-1.4-0.4-1.6c-0.7-0.2-1.3-0.9-1.5-0.9c-0.2,0-1.2-0.1-1.2-0.1s-0.7-0.8,0-1.2c0.7-0.4,1.5-1.4,1.5-1.4l0.6-0.9
			c0,0,0.2-0.4,0.4-0.5c-0.5-0.2-1.4-0.7-1.4-0.7l-1.4,0.4c0,0,0.1-0.7,0-1c-0.1-0.3,1.6-0.9,1.6-0.9l1.2-0.1l0.7,0.9l-0.9-2.4
			c0,0-0.5-0.9-0.7-1c-0.2-0.1-1.8-0.3-1.8-0.3l-1,0.2c0,0-1.2-2.4-0.8-2.6c0.4-0.2,0.9-1.1,0.9-1.1l0.7-0.8l1,0.3l-1.1-1.1
			l-1.6,0.3h-1c0,0-0.3-1.7,0-2s1.5-1.3,1.5-1.3l1-1.1l0.4-0.9l-1.8,0.1h-1.3v-1.1l1.7-1l0.7-1.1l-1.3-0.3c0,0-1.4,0.6-1.8,0.2
			c-0.4-0.4,0-2,0-2l2-1.4c0,0-1.5-0.3-1.9-0.2c-0.4,0.1-0.3-1.4-0.3-1.4l1.7-0.9c0,0-1-0.5-1.5-0.8s-0.7-5.5-0.7-5.5h-0.7l-0.4,3.2
			l-1.5,2.1l-1.5,0.3c0,0,2.2,1.2,1.7,1.7s-3,1.4-3,1.4c0.5,0.9,1.7,2,1.1,3.2c-0.6,1.1-3.3,1.4-3.3,1.4s0.3,1.3,0.7,1.4
			c0.4,0.2,2.5,2.4,2,3.2s-2.7,0.7-2.7,0.7s-0.5,1-0.4,1.4c0.1,0.3,0.6,1.2,0.6,1.2s0.7-0.1,0.4,1.8s-1.1,3.7-1.1,3.7l-1.6,0.3
			l-1.3-0.2c0,0,0.2,1.5,0.6,2c0.4,0.4,1,2.9,1.8,3c0.8,0.1,1.2,1.6,0.7,1.8c-0.4,0.2-5,0.7-5.4,0.3c-0.3-0.4-1-0.9-1-0.9
			s0.4,1.3,0.9,1.8c0.4,0.5,4.3,3.7,3.7,4.7c-0.5,1.1-2.1,0.8-2.1,0.8l-2.5-2.2L1647.1,961.2z M1908.8,874.5l0.9-0.4v1l-0.9,0.5
			V874.5z M1894.8,880.6h1.9l1,1.4c0,0,0.2,1,0,1.3s-2.3-0.6-2.9-0.7C1894.2,882.5,1894.8,880.6,1894.8,880.6z M1867.3,885.5
			c0,0,0.7-1.1,0.7-1.4s0.8-0.8,0.8-0.8s0.2-0.8,0.5-1.4c0.3-0.6,0.7,0.1,1.2,0c0.4-0.1,0.1,0.9,0,1.4c-0.1,0.5-0.8,0.4-0.8,0.8
			s0.5,0.5,0.7,0.9c0.2,0.4-0.2,0.9-0.4,0.9c-0.2-0.1-1.5,0.2-1.9,0C1867.5,885.7,1867.3,885.5,1867.3,885.5z M1852.5,889.2h0.6v1.6
			C1853.1,890.9,1852.4,889.9,1852.5,889.2z M1843.9,892.8c0,0,0.1-1.5,0.3-2c0,0,0.7,0.1,1.2,0.5c0.4,0.4-0.3,1.4-0.3,1.4H1843.9z
			 M1804.6,918c0.2,0.3,1.4,0,1.4,0c0.4,0.2,0.6,1.6,0.6,1.6s-0.2,0.2-0.6,0.2s-1.7,0.3-1.7,0.3s-0.2-0.7-0.4-1
			S1804.5,917.7,1804.6,918z M1792.9,922.8c0,0-0.7,0.2-0.9,0c-0.1-0.2-0.6,0.1-0.6,0.1s0.2-1.1,0.5-1.3c0.4-0.2,1,0,1,0V922.8z
			 M1791.3,924.9l0.2-1.1h0.4l0.3,1l1.8,0.6c0,0,0.4,1.4,0,1.5c-0.4,0.1-1.3-0.3-1.3-0.3s0-1.1-0.3-1.2
			C1792,925.4,1791.3,924.9,1791.3,924.9z M1725.8,932.4c0,0-0.5-0.3-0.7-0.3c-0.2-0.1-0.6,0.3-1,0.5c-0.4,0.2-0.7-0.1-0.8-0.3
			c-0.1-0.2-0.8-0.4-1.2-0.5c-0.4-0.1-0.6-0.6-0.6-0.6l0.8-1.1h0.9c0,0,0.6-0.7,0.7-0.9c0.1-0.1,0.6,0,0.6,0l0.4,1
			c0,0,0.5,0.7,0.8,0.7C1725.9,930.8,1725.8,932.4,1725.8,932.4z M1722.6,934.6c0.4,0.1,0.9,0,0.9,0l0.2-0.6l1.1-0.7
			c0,0,0,0.2,0.6,0.7c0.6,0.6,1.3,1.2,1.3,1.2s-0.2,0.1-0.5,0.4c-0.3,0.3-1.2,0.2-1.2,0.2l-0.9-0.5c0,0-1,0.4-1.1,0.5
			s-1.4,0.2-1.5,0C1721.4,935.5,1722.2,934.4,1722.6,934.6z M1684.2,944.6c0.1,0.4,0.4,2.2,0.4,2.2s-0.4,0.2-0.7,0
			C1683.6,946.6,1684.2,944.6,1684.2,944.6z"/>
		<linearGradient id="SVGID_20_" gradientUnits="userSpaceOnUse" x1="1900.6986" y1="870.6135" x2="1900.6986" y2="870.7943">
			<stop  offset="0.3392" style="stop-color:#C896AD;stop-opacity:0.9"/>
			<stop  offset="1" style="stop-color:#C588FF"/>
		</linearGradient>
		<path class="st21" d="M1900.8,870.7c0,0.1-0.1,0.1-0.2,0C1900.7,870.6,1900.8,870.5,1900.8,870.7z"/>
		<linearGradient id="SVGID_21_" gradientUnits="userSpaceOnUse" x1="1812.5548" y1="891.387" x2="1812.5548" y2="891.5143">
			<stop  offset="0.3392" style="stop-color:#C896AD;stop-opacity:0.9"/>
			<stop  offset="1" style="stop-color:#C588FF"/>
		</linearGradient>
		<path class="st22" d="M1812.5,891.4C1812.5,891.4,1812.5,891.4,1812.5,891.4C1812.6,891.5,1812.6,891.6,1812.5,891.4z"/>
		<linearGradient id="SVGID_22_" gradientUnits="userSpaceOnUse" x1="1868.976" y1="881.7144" x2="1868.976" y2="885.9684">
			<stop  offset="0.3392" style="stop-color:#C896AD;stop-opacity:0.9"/>
			<stop  offset="1" style="stop-color:#C588FF"/>
		</linearGradient>
		<path class="st23" d="M1868.7,883.3c0,0,0.2-0.8,0.5-1.4c0.3-0.6,0.7,0.1,1.2,0c0.4-0.1,0.1,0.9,0,1.4c-0.1,0.5-0.8,0.4-0.8,0.8
			s0.5,0.5,0.7,0.9c0.2,0.4-0.2,0.9-0.4,0.9c-0.2-0.1-1.5,0.2-1.9,0c-0.5-0.2-0.7-0.4-0.7-0.4s0.7-1.1,0.7-1.4
			S1868.7,883.3,1868.7,883.3z"/>
	</g>
</g>
<g id="Layer_3">
	<linearGradient id="SVGID_23_" gradientUnits="userSpaceOnUse" x1="944" y1="1438.9976" x2="944" y2="686.7267">
		<stop  offset="0.3392" style="stop-color:#C896AD;stop-opacity:0.9"/>
		<stop  offset="1" style="stop-color:#C588FF"/>
	</linearGradient>
	<path class="st24" d="M-48.4,794.3c0,0,8.4,8.6,14.4,7.6c6-1,40-10.5,52-7.6c12,2.9,82,45.7,87,44.8c5-1,82-1,88-4.8
		c6-3.8,45-31.4,51-31.4s26-26.7,26-26.7s19-5.7,26,0c7,5.7,12-21.9,19-21.9s17-18.1,34-16.2s32,13.3,37,10.5s18-20.9,25-20.9
		s5-13.2,8-12.8s9-11,14-7.2s-4-10.5,7-10.5s23,0,23,0l7-10.5c0,0,14,14.3,21,14.3s22,6.8,22,13.9c0,7.1,22,14.7,22,21.3
		c0,6.7,36,18.1,44,32.4s81,36.2,95,62.8s63,13.4,65,7.6c2-5.7,29-1.9,29,0.9c0,2.9,30,12.1,48,7.5c18-4.6,71,19.2,71,26.8
		s28,24.8,53,20.9s52-13.3,52-13.3s46,3.9,61,13.9c15,9.9,75,5.2,75,5.2s639,145.7,669,90.5s94-49.5,94-49.5l29-30.5l67,38.1V1439
		l-2086-34.3L-48.4,794.3z"/>
</g>
<g id="Layer_4">
	<linearGradient id="SVGID_24_" gradientUnits="userSpaceOnUse" x1="957" y1="820.7838" x2="957" y2="1615.0343">
		<stop  offset="0" style="stop-color:#3E247F"/>
		<stop  offset="0.1096" style="stop-color:#472C80;stop-opacity:0.9729"/>
		<stop  offset="0.2881" style="stop-color:#5F4183;stop-opacity:0.9287"/>
		<stop  offset="0.5136" style="stop-color:#876487;stop-opacity:0.873"/>
		<stop  offset="0.7747" style="stop-color:#BD938D;stop-opacity:0.8084"/>
		<stop  offset="0.8086" style="stop-color:#C59A8E;stop-opacity:0.8"/>
	</linearGradient>
	<path class="st25" d="M-55.8,1036.6c0,0,29-3,33.5-10.5s22.4-9,22.4-9s18.1,30,34.6,30s105,21,112.5,19.5
		c7.5-1.5,28.5-13.5,28.5-13.5l12.4,0.6c0,0,45.3-15,49.3-19.3c4-4.3,9,4,9,4s29.3-1.3,30.3,3.5s22.3-7.2,29-7.2
		c6.7,0,29,7.7,33.3,3s19.7-17.7,30.3-17.7c10.7,0,38.3-1,41-9.3c2.7-8.3,29.3-5.7,29.3-5.7s21.7-3.3,29.7,0s35-3.3,35.3-6.3
		c0.3-3,18-1.3,18-1.3s10.3-8,17-7c6.7,1,18-0.3,25.3,14.7c0,0,11,6.3,11,7.3s15.3,23,20,21.3s81,0.7,99.3-12.7
		c0,0,2.7-10.3,5.3-10.7c2.7-0.3,23.7-0.7,23.7-5.3s13-7.7,13-7.7l58.3-3.3c0,0,7.3-4.2,9.7-3.8c2.3,0.4,16,6.4,16,6.4
		s34,6,37.3,2.3c3.3-3.7,23.7-7.7,25-7.3c1.3,0.3,15.7-26.3,29.3-27.3s12.3-4.7,16-4.7s24.3-0.3,26,0c1.7,0.3,14.3-10.3,19.3-10.3
		s17,1,21.3,3.7c4.3,2.7,15,4.3,15,4.3s7.3-7.3,11-8c3.7-0.7,16.7,11,16.7,11s20.7,3.3,23.3,0c2.7-3.3,16.3-24.7,22.3-24.7
		s64-28.3,68.7-33.3c4.7-5,33.3-29.7,38.3-29.7s14-12.7,17.3-12.7c3.3,0,8-17.7,12.3-18c4.3-0.3,7.7-9,7.7-9h10.7
		c0,0,22.3-9,24-11.7c1.7-2.7,7.7,4.7,7.7,4.7s13-2.3,15-0.3s7,11.7,10.3,11.7s8.7,5.7,9,6.7s14.7,23.3,26.7,23.7
		c12,0.3,21.7-1.3,26.7-3.3s25.7,2,26.3,7c0.7,5,19,10,25.7,20.3c6.7,10.3,21.7,2.3,24.7,3.3s28,24.3,30.3,27.3
		c2.3,3,35.7,31,66.7,29s50.7,7.7,97.3-24.7c0,0,15.7-14,29.7-13s40.3,9.3,44.7,6c4.3-3.3,15.3-12.7,22.7-12.7
		c7.3,0,12.7,7.3,15.3,7.3c2.7,0,17,2.3,18.3,5.3s30,16.7,33.3,21c3.3,4.3,13,10,15,9.7c2-0.3,11.3,0,14,1.7
		c2.7,1.7,17,13,18.3,18.3c1.3,5.3,6.3-0.3,8,0.7c1.7,1,10.7,7.3,10.3,10s9.7,3.3,9.7,3.3s9,16,8.7,19.3c-0.3,3.3,13-7.3,26.3,20
		c13.3,27.3,80,60.7,80,60.7L2003,1615l-2092-24L-55.8,1036.6z"/>
	<g>
		<path class="st26" d="M237.2,1078c0.2-0.4,1.3,0.2,1.3,0.2s-0.3-1.9-1-2.2c-0.7-0.3-1.9,0-1.9,0v2.1
			C235.5,1078,236.9,1078.4,237.2,1078z"/>
		<path class="st26" d="M212.9,1069.8c-0.3,0.6-2.7,0-2.7,0c-0.8,0.4-1.3,2.7-1.3,2.7s0.3,0.3,1.3,0.3c0.9,0,3.2,0.5,3.2,0.5
			s0.3-1.2,0.8-1.8S213.2,1069.2,212.9,1069.8z"/>
		<polygon class="st26" points="10.3,995.6 11.9,996.5 11.9,994.6 10.3,993.9 		"/>
		<path class="st26" d="M237.5,1079.8l-0.6,1.8l-3.5,1c0,0-0.8,2.5,0,2.6c0.8,0.1,2.6-0.5,2.6-0.5s-0.1-2,0.5-2.1
			c0.6-0.1,2.1-0.9,2.1-0.9l-0.3-1.9H237.5z"/>
		<path class="st26" d="M35.3,1005.2l-1.9,2.4c0,0-0.5,1.7,0,2.2c0.5,0.6,4.3-1,5.5-1.2s0-3.4,0-3.4H35.3z"/>
		<path class="st26" d="M371.2,1098.3c-0.8,0.2-1.7,0-1.7,0l-0.3-1l-2.2-1.3c0,0,0,0.3-1.3,1.3c-1.3,1-2.4,2.1-2.4,2.1
			s0.5,0.2,1,0.7c0.5,0.5,2.3,0.4,2.3,0.4l1.7-0.9c0,0,1.9,0.7,2,0.9s2.7,0.4,2.9,0S372,1098.1,371.2,1098.3z"/>
		<path class="st26" d="M366.4,1093.9c0.4-0.1,1.2,0.6,1.9,0.9s1.4-0.1,1.6-0.5c0.2-0.4,1.6-0.7,2.3-0.8c0.7-0.1,1.1-1,1.1-1l-1.5-2
			h-1.6c0,0-1.2-1.3-1.3-1.5s-1.2,0-1.2,0l-0.7,1.7c0,0-1,1.3-1.5,1.2s-0.3,2.5-0.3,2.5S366,1094,366.4,1093.9z"/>
		<path class="st26" d="M444.6,1119.4c0,0,0.7,0.3,1.3,0c0.6-0.3-0.6-3.8-0.6-3.8C445.1,1116.3,444.6,1119.4,444.6,1119.4z"/>
		<path class="st26" d="M473,1130.6c-0.2,0.2,0.1,0.1,0.6-0.1C473.4,1130.4,473.2,1130.4,473,1130.6z"/>
		<path class="st26" d="M370.6,1084.9C370.6,1084.9,370.6,1084.9,370.6,1084.9C370.6,1084.9,370.6,1084.9,370.6,1084.9z"/>
		<path class="st26" d="M48.1,950.3C48.1,950.3,48.1,950.3,48.1,950.3C48.1,950.3,48.1,950.3,48.1,950.3z"/>
		<path class="st26" d="M163,1009.3C163,1009.3,163,1009.3,163,1009.3C163,1009.3,163,1009.3,163,1009.3z"/>
		<path class="st26" d="M62.5,939.9c0.1,0.1,0.1,0.1,0.1,0.1S62.7,940,62.5,939.9z"/>
		<path class="st26" d="M281.4,1054c-0.3,0.5-0.3,1-0.3,1S281.2,1054.6,281.4,1054z"/>
		<path class="st26" d="M39.4,987.3c0,0.1,0.1,0,0.4-0.4C39.5,987,39.4,987.2,39.4,987.3z"/>
		<path class="st26" d="M514,1143.4l-4.8,3.8c0,0-2.9,0.4-4-1.4s6.3-7.3,7.2-8.2c0.8-0.9,1.6-3.1,1.6-3.1s-1.4,0.9-2,1.6
			c-0.6,0.7-9.5-0.1-10.3-0.4s-0.1-2.9,1.4-3.1c1.5-0.1,2.8-4.4,3.5-5.2c0.7-0.7,1.2-3.4,1.2-3.4l-2.5,0.3l-3.1-0.4
			c0,0-1.4-3.1-2-6.4c-0.6-3.3,0.8-3.2,0.8-3.2s0.9-1.5,1.2-2.1s-0.7-2.4-0.7-2.4s-4.2,0.3-5.2-1.2c-0.9-1.5,3.2-5.3,3.9-5.6
			s1.3-2.5,1.3-2.5s-5.3-0.6-6.5-2.5c-1.2-1.9,1.2-3.8,2.1-5.4c0,0-4.8-1.5-5.8-2.4c-0.9-0.9,3.3-2.9,3.3-2.9l-2.8-0.6l-2.9-3.7
			l-0.8-5.6h-1.4c0,0-0.5,9-1.3,9.4c-0.8,0.4-2.8,1.3-2.8,1.3l3.2,1.6c0,0,0.3,2.6-0.5,2.5c-0.8-0.1-3.6,0.3-3.6,0.3l3.9,2.5
			c0,0,0.7,2.6,0,3.4c-0.7,0.7-3.4-0.3-3.4-0.3l-2.5,0.6l1.4,1.9l3.3,1.8v1.9h-2.5l-3.5-0.1l0.8,1.5l2,1.9c0,0,2.3,1.8,2.9,2.2
			c0.6,0.4,0,3.4,0,3.4h-1.9l-3.1-0.6l-2.1,1.9l1.9-0.4l1.4,1.3c0,0,1.1,1.6,1.8,2c0.7,0.4-1.5,4.5-1.5,4.5l-2-0.3
			c0,0-3.1,0.3-3.4,0.4c-0.4,0.1-1.3,1.8-1.3,1.8l-1.6,4.1l1.4-1.6l2.3,0.1c0,0,3.3,1,3.1,1.6c-0.2,0.6,0,1.8,0,1.8l-2.7-0.7
			c0,0-1.7,0.8-2.7,1.2c0.4,0.2,0.8,0.8,0.8,0.8l1.2,1.6c0,0,1.4,1.6,2.8,2.4c1.4,0.7,0,2.1,0,2.1s-1.9,0.1-2.2,0.1
			c-0.4,0-1.5,1.2-2.9,1.5s-0.7,2.8-0.7,2.8l2.8,0.6c0,0-0.2,2.2-1.4,3.2c-1.2,1-1.2-1.9-1.2-1.9s-2.5-1.2-2.8-1.5s-0.6-7.8-0.6-7.8
			s-2.8,1-3.2,0s1.2-2.6,1.2-2.6l2.6-1.9h-3.5l-0.1-4.6h1.9l-1.9-1.6l-2.1-1.3l-0.2-1.5l2.3-0.4c0,0-2.2-0.7-2.6-0.9
			c-0.4-0.2-0.8-0.4-1.1-1s0.1-2.1,0.1-2.1h2.5l-2.6-2.1c0,0-3.5,0-4.6-0.3s-1.6-3.1-1.6-3.1l2.5-2.2l2.9,0.4c0,0-1.9-1.8-2.5-2.6
			s-1.3-0.1-1.3-0.1l-3.4-0.4l-0.6-3.7h4l-1.2-1.7c0,0-3.4-1.5-3.9-1.7c-0.5-0.1-0.8-1.9-0.8-1.9l-1.5-6.2l-1.9,1.1
			c0,0,0.5,4.7,0.9,5.4c0.5,0.7-1.4,3.3-1.4,3.3l-4.3,1h2.7l-0.8,2.6c0,0,1.6-1.8,2-1.8c0.4,0,1.2,1,1.2,1s-1.1,2.6-2.8,2.6
			s-0.6,2.5-0.5,2.2c0.1-0.3,1.2-0.1,1.2-0.1l2.1,2.4l-3.6,1l-3.2,0.3l2.1-1.5l-2.2-0.7c0,0,1.5-1.3,0.6-1.3c-0.9,0-1.2-2.2-1.2-2.2
			l1.9-0.6l-1.9-0.9c0,0-1.3-3.7-1.3-2.4c0,1.3-2.5,2.8-2.5,2.8s1.9,0.3,1.5,0.7c-0.4,0.4-1.6,2.2-1.6,2.2s2,0,1.5,0.7
			s-0.9,2.1-0.9,2.1c-0.9,0.6-1.4,0.7-1.4,0.7l1.4,1l-3.3,3.1l3.3-0.9l-1.8,1.9l1.8,0.9l-1.8,1.2l1.8,0.7l-2.6,2.1
			c0,0,1.3-0.6,1.8-0.1s0,3.2-1.1,2.6c-1.1-0.6-1.9-3.5-1.9-3.5l-1.5,2.8l-2,1.9l-3.8-1c0,0,2.5-2.8,2.5-5s5.2-5.3,4.8-5.9
			s-7.7,0.1-9,0c-1.3-0.1-1.1-2.7-1-3c0.1-0.3,1.4-2,1.4-2.8s2.3-2.6,4-3.2c1.6-0.7,2-0.6,2-0.6l-1-1.7h-3c0,0-4.3-1-4.5-3
			c-0.2-2.1-0.8-5.1-0.7-5.9s0.9-1.9,0.9-1.9l1.7,0.8c0,0-0.1-3.1-1.8-4.3c-1.7-1.2-4.7,0.2-5,0.2c-0.3,0,0.1-3.5,0.1-3.5
			s1.9-2.6,3.4-3.1s1.6-2.5,1.6-2.5l-3,0.2c0,0-2.3-1.4-2.8-1.8c-0.5-0.4-0.2-2.8-0.4-3.3c-0.2-0.5,0-2.1,0.9-2
			c0.9,0.1,2.3-0.3,2.3-0.3l-1.6-1.9l-1.4,0.4l-3.1-0.7l-0.9-3.3l3.2-0.5c0,0-1.6-3.2-3.4-4.4c-1.7-1.2-2-0.9-2-0.9l1-4.6l-1.6,1.8
			l-0.6-5.9l-0.9,6.5l-2.2-0.9c0,0,1.9,2.8,2.2,3.4c0.3,0.6-1.8,3.7-1.8,3.7s-1.6,1.4-1.6,2.2s-1,2.2-1,2.2l-3.5,3.3l3.7-1.7
			c0,0-2.1,2.2-0.4,1.9s-0.5,2.1-0.5,2.1l-2,1.2l0.6,1.8l-2.8,3.1l3.1-0.5l2.1,0.6l1.1,2.4l-1.6,0.1c0,0-2-0.2-2.7,0.4
			c-0.6,0.6-2.3,1.2-2.3,1.2l2.9-0.1l1.3,1.5l3,2.4l0.3,2.2l-2.3,0.9l-2.7,0.1l-2,1.5c0,0,1,1.3,0.2,1.7c-0.9,0.4-1.2,2.2-1.2,2.6
			c0,0.4,0.5,3.2,0.5,3.2s-2.5-0.1-3.5-1.9c-1-1.8,4.2-8,4.2-8l1.5-2.5c0,0-4.2-0.1-5.5-0.4c-1.3-0.3-1.6-2.7-1.3-2.7s0.3-5.8,0-6.4
			c-0.3-0.6-0.4-2.9-0.4-2.9l3,0.6l-1.6-1.7l2-0.5c0,0-1.6-0.7-2.9-0.5c-1.3,0.2-4.1,0.7-5.3,0c-1.2-0.7,0.1-1.8,0.1-1.8
			s1.7-2.2,2.6-2.2s0.5-1.7,0.5-1.7l1.3-1l1.4-1.8l-1.2-1c0,0-5.6-0.9-5.8-1.2s-0.5-1.5-0.5-1.5l1.6-0.6c0,0-1.5-2.1-1-2.6
			c0.5-0.6,3.5,0.2,3.5,0.2l-0.9-2.1l-4.9-0.6c0,0-1.3-2.1-1-2.8s2.9-0.6,2.9-0.6l-0.7-1.8l-3.2-1.5c0,0-1.6-2.2-1.8-2.7
			c-0.2-0.6-0.5-2.9-0.6-3.7c-0.1-0.8-1.5-2.5-1.5-2.5l-0.5,5.4l0.9,3.6c0,0-1.5,0.9-3,1.6c-1.5,0.7-1.3,2.1-1.3,2.1
			s3.5,0.7,3.8,1.3s-0.5,2-0.5,2s-1.7,0.5-2.8,0.7c-1.1,0.2-1,2-1,2l2-0.1l1,1.2c0,0,1.6,1.7,1.7,2.3c0.1,0.6-4.8-0.2-5.9-0.3
			c-1.2-0.1-1.1,2.4-1.1,2.4s1.9-0.2,1.9,0.2c0,0.4,1.6,1.8,1.6,1.8l1.1,0.9c0,0,0.6,1.2,0,1.9c-0.6,0.7-3.1-0.4-4-0.6
			c-0.9-0.2-2.3,1.6-1.6,1.5s1.9,1.4,1.9,1.4s0.6,2.1,2.6,2.5c2,0.4,0.7,2.4,0.7,2.4c0.2,1.3-1.3,0.8-1.3,0.8l-2.4,0.1
			c0,0-2.3,1.6-0.7,1.7c1.6,0.1,0,1.7,0,1.7v2.1l-1.9,0.7c0,0-1,1.9-1.2,2.2c0.2-0.3,0.5-0.1,1.1-0.2c0.5-0.1,1.5,1.7,1.5,1.7
			s-2.3,0-2.6,0s-1.6,1.5-1.6,1.5l-0.9-0.6l-1.2-1.8c0,0-0.5-2.7-0.9-2.7s-1.2,0.7-1.5,0.7s-1.3,0.4-1.8-1.2s0.5-1,0.8-1.5
			c0.3-0.4,0.9,0.3,1.2,0.4c0.3,0.1,1.5-2,1.9-2c0.4,0,0-1.1,0-1.1l-1,0.8l-1.8-0.8c0,0-1.8,0-2.8-0.1s-0.4-1.8-0.4-1.8l0.6-0.9
			l1.9,0.9l-0.4-1.4l-1.1-1l0.4-1.1l1.8,0.6l-0.9-1.4l-1.3-1l-1.8-0.2l-0.7-1.7l-0.2-2.1l2.2,0.6l-0.4-2.3c0,0-1.3-0.7-1.6-0.7
			s-1.8-0.1-1.8-0.1s-0.1-1.5,0-1.8s1.4,0.2,1.4,0.2l-0.6-1.4l1.1-0.3c0,0,0.9,0,0.9-0.3s-0.8-0.7-1.1-0.9c-0.3-0.1-2.7-0.1-2.7-0.1
			s-0.5-2.6-0.2-3.1s1.9,1,1.9,1s-0.1-0.8-0.5-1.5c-0.5-0.7-2.5-1-2.5-1l-0.2-2.4l1.6-0.4c0,0-3.1-1.3-2.9-1.5s0.7-2.5,0.7-2.5
			l-1.5,2c0,0,0.5-4.6,0-4.6s-0.8,4.7-0.8,4.7s-2-0.1-1.1,0.4c0.9,0.4,0,1.9-0.3,2s-1.1,1.7-1.1,1.7l2.3-0.2c0,0,0.4,1.4-0.8,1.4
			c-1.1,0-1.6,1.3-1.6,1.3h2.3c0,0-0.1,1.3-1,1.3c-0.9-0.1-2.9,2.5-2.9,2.5s2.6-0.9,2.8-0.9c0.3,0-0.4,1.7-1.1,1.6
			c-0.8-0.1-1.5,2.7-1.5,2.7l1.7-0.6c0,0,2.1,1.8,0,1.8c-2.1,0.1-2.4,2.7-2.4,2.7s2.2,0.1,2.1,1.9c-0.1,1.8-1.2,0.2-2.6,0.3
			c-1.3,0.1-3.1,2.3-3.1,2.3s3.3,0.4,2.1,0.7s-1.5,1.8-1.5,1.8s0.8-0.5,1.2-0.7c0.4-0.2,1.2,0.4,0.6,0.7c-0.6,0.2-0.6,2.3-0.5,2.1
			c0.1-0.2,2.4-1.1,2.4-1.1v1.4c0,0-1.2,0.9-2.3,1.1c-1.1,0.2-1,2.6-1,2.6s1.6-0.7,1.9-0.1s-0.3,1.6-0.3,1.6s-1.1,0.7-1.9,0.7
			c-0.8,0-1.2,1-1.5,2.1c-0.4,1-1.6-0.5-1.9-0.7s0.4-1.6,1.1-2.7s1.2-3.5,1.2-3.5l-2.6,0.6c0,0-0.1-2-0.1-3.7
			c0.1-1.7-0.7-2.6-0.7-2.6s-1.6,0.1-2.1-1.2c-0.5-1.3,0.3-1.6,0.3-1.6l1.2-1.3c0,0-1.8-0.5-0.8-0.7s2.6,0.7,2.6,0.7
			s0.1-0.8-0.3-1.3c-0.4-0.5-3.3-0.8-3.3-0.8s-1.3-2.4,0.1-2.4s2-0.1,2-0.1l-1.2-1l-1.7-0.5l-1.7-1.9l2.4-0.5l-3.3-2.4l-0.9-3
			l-0.6,4l-1.7,2.2l1.7-0.2l-0.5,2.3l-2,1c0,0,1.5,1,0.9,1.4c-0.6,0.4-2.1,1.7-2.1,1.7l2.7-0.6l-1.8,1.8c0,0,1.6-0.6,1.5,0.1
			c-0.2,0.7-3.1,2.4-3.1,2.4l2.1-0.7c0,0,1.8,2.4,1.3,2.9s-2.6-1.3-2.6-1.3l1.8,2.1l-1.5,1l1.4,0.2l-1,1.3c0,0,1.4-0.2,1.3,1
			c-0.1,1.3-1.3,0.5-1.9,0.5c-0.6,0-1,1.7-1,1.7s0.8-0.5,1.2-0.7c0.4-0.2,0.2,3.6-0.2,3.5c-0.4-0.1-1.2,1.5-1.2,1.5l1.8-0.1v3.5
			l-3.2-1.3c0,0-1.3-0.1-1.5-0.5c-0.2-0.4,2.2-1.3,2.2-1.3l0.4-1.2c0,0-0.5-1.2-0.8-2.2s1.2-2,0.9-2.4c-0.3-0.4-0.5-2.2-0.5-2.2
			l0.9-1.6c0,0-1-2.4-2-2.4s-1.6,0.4-3.1,0.5c-1.4,0.1-0.5-2.5-0.5-2.5l2.8-1.5c0,0-1.2-2.7-0.9-2.6c0.2,0.2,1.6-0.9,1.6-0.9
			s-2.3-2.2-3.1-4.3c-0.7-2.2-0.7-1.3-0.7-1.3l-2-0.6l-0.3-1.5l0.3-1.2c0,0-0.1-2.9-1.3-3.8c-1.2-0.9,1.3-7.2,0.8-8.2
			c-0.5-1.1-3.9-0.4-3.9-0.4s-0.5-2.3,0.7-2.4c1.2-0.1,0-3.5,0-3.5s-2.2-0.9-3.3-1.4c-1.2-0.5-0.5-2.4-0.1-3.2s3.9-0.9,3.4-1.9
			c-0.5-1-4.2-0.2-4.2-0.2s-1.3-1.7,0.5-2.6c1.9-0.9,3.7-0.4,3.7-0.4l-0.7-1.8l-4.3-0.2c0,0-1.6-1.4-0.9-2.2s2.8-1.1,2.8-1.1l-2.8-2
			c0,0-0.4-2.5,0.9-2.3c1.3,0.2,3.3,1,3.2-0.3c-0.1-1.3-3.6-2.2-4.5-2.1c-0.9,0.1-0.4-2-0.1-2.3c0.2-0.3,0.2-5.4,0-6.3
			c-0.2-0.9-1.8-0.7-1.8-0.7l-1.3,7.2l-3,0.1c0,0,1.7,0.8,1.2,1.2c-0.5,0.4-2.2,3.1-2.2,3.1s2.8-1.9,3.4,0.8s-1,2.6-1,2.6
			s-1.8-1.8-2.5-1.6c-0.7,0.2-2.6,3.4-1.2,2.5s1.8,1.6,1.8,1.6s0.9,2,0.9,2.7s-2.7,0.4-4.8,0.7c-2,0.3-1.7,2.6-1.7,2.6l3.6,0.7
			c0,0,1.3,1.3,1.8,2.6c0.5,1.3-2.3,0.6-2.3,0.6s-2,0-2.7-0.1c-0.7-0.1-1.2,0.6-1.2,0.6l0.5,2.6c0,0,1.1,0.4,2.3,2.7
			c1.2,2.4-0.7,3.2-1,4c-0.3,0.8,0,1.6,0,1.6s-0.8,0.8-1.8,0.6c-1-0.2-0.9-3.1-0.9-3.1s-3-3.3-1.5-3.1c1.5,0.2,2-0.9,2-0.9
			s-4.5-2.3-3.1-2.3c1.3,0,2.7,0.6,2.7,0s-2-1.9-2-1.9s-2.2-2.6-1.1-2.2c1.1,0.5,2.6-0.1,2.6-0.1l-1.9-1.1c0,0-2.4-2.1-1.6-1.7
			c0.8,0.4,1.6-1.3,1.6-1.3s-1.5-0.9-2.1-0.9c-0.6,0-1.5-1.4-0.7-1.2c0.8,0.2,0.7-1.7,0.7-1.7l-1.6-3.8l-2.4,5.6
			c0,0,1.4-1.3,1.8-1.2c0.3,0.1-0.2,1.7-0.8,1.9c-0.6,0.2-1.2,2.7-1.2,2.7s1.3-0.8,1.7-0.2c0.3,0.6,0.9,1.2-0.9,1.2
			c-1.7,0-2.3,2-2.3,2s2.7-0.5,3-0.4c0.3,0.1,0.2,1.5-0.7,1.5s-2.7,1.9-2.7,1.9s2.9-0.5,2.7,0c-0.2,0.5-0.6,0.9-0.6,0.9
			s-1,1-1.9,1.5c-0.9,0.5,0.2,1,0.2,1s2.3-0.4,2.2-0.4c-0.1,0,0.4,1.7,0,2.4c-0.4,0.7-2.2-0.4-2.2-0.4l-0.5,1.1l0.9,1.6
			c0,0,1.6,1.2,1.8,2.9c0.2,1.8-7.2,0.5-7.2,0.5s3.6,2.2,2.3,2.5c-0.9,0.2-1.6,2.5-2,3.9c0.2-0.4,0.5-0.9,1.2-1.2
			c1.4-0.7,3,1.4,2.7,2.3s-3,1.1-3,1.1s2.2,1.4,1.3,2.7c-0.9,1.4-5.6-1.7-5.6-1.7l3.8,3.8h-2c0,0,1.8,1,2.3,1.7c0.5,0.7-0.3,1.5-1,2
			c-0.7,0.5-3.1,0.4-3.1,0.4l3.1,1.9c0,0,0.3,3.4-1.8,2.6c-2.1-0.8-0.6-3.2-0.6-3.2s-1.6-0.7-2-1.1c-0.4-0.4-0.5-1.4,0.4-1.9
			c0.9-0.5,2.8,0.1,2.8,0.1l-1.4-1.4c0,0-3.1-0.8-3.2-1.4c-0.1-0.6,4-1,4-1s-3.2-0.6-4.6-2.3c-1.4-1.7-0.9-4.1-0.9-4.1l2.1,0.2
			l-2.3-2.3l3.8,0.6l-3.4-2.1l-0.1-3.3l0.5-5.5l-3.1,5.4l-1.4,0.1l0.8,1.1c0,0,0.1,2.5,0,3.3s-2.8,1.4-2.8,1.4l2,0.3
			c0,0,0.2,2.6,0,2.9c-0.2,0.3-2.3,0.3-2.3,0.3l-0.5,1.6l2.2,1.7c0,0-0.9,0.8-1.1,2.1s-1.7,0-1.7,0l-0.2-1.7l0.3-3.1l-1.1-0.8
			c0,0-0.3-2-0.2-2.5c0.2-0.5,3.4,0.4,3.4,0.4l-3.8-1.6l-1.2-1.5c0,0,2.3-0.1,1.9-0.8c-0.4-0.7-2.2-1.3-3.1-1.6
			c-0.9-0.3,0.4-3.3,0-3.9c-0.4-0.6-1.2,0.2-1.2,0.2s0.1,3.9,0,3.9c-0.1,0-2.5,2.1-2.5,2.1s2.3-0.8,2.5,0.3s-0.7,1-0.7,1l-1.6,1.5
			c0,0,1.7,0,1.6,0.6s-0.2,1.6-0.6,1.7c-0.5,0.1-1.7,1.7-1.7,1.7s2.3,0,2.3,1c0,1-1.2,0.4-1.6,0.4s-1.5,2.4-1.5,2.4l1.6-0.9
			c0,0,0.9,1.7,0.8,2.2c-0.2,0.5-1.8,1.3-1.3,1.8c0.5,0.5-0.1,2.9-0.6,2.9s-2.7,3.6-2.7,3.6h2.1l-2.6,2.8c0,0,2.3-0.9,2.5-0.6
			s-0.2,2.1-1.1,2.3c-0.9,0.2-3,3.2-3,3.2s1.6-1.1,2.3-1.2s-0.5,2.8-0.5,2.8h-2.3l-0.6,1.1c0,0-0.5,0-2.1,0c-1.6,0,1.6-2.7,1.6-2.7
			s2.6-2.5,0-2.4c-2.6,0.2-1.8-2.3-1.7-2.5c0.1-0.2,0-4.5,0-4.5l-1.8-0.7c0,0-0.8-1.7-0.9-2.6c-0.2-1,1.8-1.3,1.8-1.3
			s-1.6-1-1.9-1.4c-0.3-0.4,0.2-2.2,0-3.1c-0.2-1-1.8-0.8-2-0.9s0.2-1.2,0.9-1.7c0.7-0.5,0-1.2,0-1.2s-1.9-1-2.1-1.3
			c-0.2-0.3,0-2.8,0-2.8s-0.9-2.1-0.8,0.6c0.1,2.6-0.5,2.9-1.1,2.9s-1,1.8-1,1.8s1.3-0.3,1,0.6s-0.6,1-0.6,1s-1.1,0.9,0.3,1.2
			l-0.9,1.9l-0.9,0.2v1.1l1.5,1.3c0,0-0.8,1.1-1.3,0.9s-2.1,2.4-2.1,2.4s2.2-0.7,2.7-0.5c0.5,0.2,0.6,2.3,0.6,2.3s-0.8,2.3-0.2,3.1
			c0.6,0.9-0.6,2.6-1.8,2.9c-1.2,0.4-2-2.8-2.4-4.5c-0.5-1.7-0.9-3.4-1.2-3.6c-0.4-0.2-1.7,1-1.7,1h-1.6c0,0-0.6-2.1-0.6-3.1
			s4.3-2.3,3.9-2.7c-0.4-0.5-4.7,1-5.4,0.7s0-2-0.2-2.6c-0.2-0.7,2.9-4.4,2.9-4.4s-2.5,0.7-3.3,0.4c-0.8-0.3-0.5-2.8-0.1-3.3
			c0.4-0.5,0.5-3.8,0.5-3.8s-2.4,0.2-2.7,0.1c-0.2-0.1-0.8-2.2-0.6-2.6s3.3,1,3.3,1s-0.4-1.3-2.1-2.2c-1.7-0.9-1.4-1.6-1.4-1.6
			s-1.6-1.6-1.8-2.2c-0.2-0.6,2.5-1,2.5-1s-2.5-1.1-2.1-1.5c0.4-0.4,0.9-2.5,0.5-2.6c-0.4-0.1-1.6-0.7-1.6-1.2
			c-0.1-0.5-1.2-4.9-1.2-4.9l-1,2.6l-0.4,3.6c0,0-0.9,2,0.2,1.8s0.1,1.6,0,2.1c-0.1,0.5-2.3,1.3-0.9,1.7c1.3,0.4-0.6,1.7-0.9,2.6
			s-2.3,2.6-2.3,2.6s1.3-0.3,1.6,0.1c0.3,0.4-0.2,1.9-0.2,1.9l-1.9,1.4c0,0,2.3-0.2,1.8-0.1s-0.9,2.3-0.5,2c0.5-0.3,1.4,0.8,1.4,2.6
			s-2.4,0-3.5,0.3s-0.5,2.3-0.1,1.7s2.5,0.5,1.6,0.9c-0.9,0.4-1.2,3.2-1.2,3.2s1.8-1.7,1.9-1c0.1,0.7-0.9,2.6-2.2,2.7
			c-1.3,0.1-0.5,2.6-0.9,2.8c-0.4,0.2-2.7,0.7-3.3-1.1c-0.5-1.8,3.3-4.2,3.3-4.2s-2.5-1.8-1.8-2.2c0.7-0.4,0-4.3,0-4.3
			s-2.9,2.6-4,1.4c-1.1-1.2,2.9-5.3,2.9-5.3s-4.3,1.2-5,1c-0.7-0.2-0.5-2.6,0.5-3.5c1-0.9,2.2-4,2.2-4s-2.6,0-3.9-3.3
			c-1.3-3.3,1.9-3.4,1.9-3.4s-4.1-0.4-4.2-0.8c-0.1-0.4,2.5-1.3,2.5-1.3l-1.7-2.4l-1.5-1.7c0,0-2.7-2.5-1.4-2.2
			c1.3,0.3,1.8-1.3,1.2-0.9c-0.6,0.4-1.6-1.9-1.6-1.9l-0.8-2.1l1.6-0.4c0,0-1.5-1.4-2.1-2c-0.6-0.6,0-3.1,0-3.1s-0.5,0-1.2,2.6
			c-0.3,1.5-0.8,2.3-1,2.7c0.4-0.1,1,1.7,1,1.7l-1.6,1.2l1.3,1l-2,1.6c0,0,2.3-0.4,2.3-0.1c-0.1,0.3-0.8,1.3-1.5,1.6
			c-0.7,0.3-1.9,1.8-1.9,1.8l1.6-0.2c0,0,0.5,2.7,0,3.2c-0.5,0.5-4.2-0.1-4.9-0.6c-0.6-0.5-0.1-2.8,2.4-4c2.5-1.2,1.4-8.4,1.4-8.4
			s-4.3,0-5.2-0.7c-0.9-0.7,2.1-10,2.1-10.4s-1.6-2.6-1.6-2.6s-4.8,0.3-5.2-0.6c-0.4-0.9,2-2.2,2.2-2.6c0.2-0.4,1-3,2.9-4
			s0-1.5,0-1.5s-0.7-0.2-2.4-0.4c-1.7-0.2-2.6-0.1-3.2-0.5c-0.6-0.4,0,0,0-2.2c0-2.2,0.9-2.1,1.1-2.6c0.2-0.5,1.9-1.6,1.4-2.1
			c-0.5-0.5-2.5,0.7-3.8,0.5c-1.3-0.2-1.3-0.9-2.1-2.4c-0.8-1.5-0.5-3,0.4-3c0.9,0,2.1-1.6,2.1-1.6s-0.9-1.4-2.5-1.8
			s-1.6-1.5-1.6-1.5l-0.5-2.2c0,0-1.8-4.3-2.2-5.3c-0.4-1-1.6-0.2-1.6-0.2l0.5,5.9c0,0,0.3,2.6,0,3.8c-0.3,1.2-3.5,1.1-4.1,1.1
			c-0.6,0-1.8,2.6-1.8,2.6l2.4-0.2c0,0,1.6,0.8,1.5,2.1c-0.2,1.3-1.3,1.4-1.8,1.4s-2.2,2.7-2.2,2.7s1.1-0.4,1.4-0.5
			c0.4-0.1,2.8,0.7,3.3,1.5c0.5,0.9,1.3,2.1,1.3,2.1s-5,0.1-6-0.1c-0.9-0.2-2.4,2.8-2.4,2.8s1.5-0.4,2-0.6s1.9,0.1,3.8,1.7
			c1.9,1.6,0.4,2.4,0.4,2.4l-1.1,0.8c0,0-2.3-0.2-3.2-0.6c-0.8-0.4-2.1-1.4-2.1-1.4l0.9,1.7c0,0,1.3,2.2,1.6,2.7
			c0.3,0.5,2.9,2.1,2.9,2.1s0.2,1,0.4,1.8c0.2,0.9-3.3,0.5-3.3,0.5s-0.7,1.1-1.2,2c-0.5,0.9,0.5,2.3,0.7,2.9s1.8,0,1.8,0
			s0.5,3.2-1.1,4.3s-2.1-1.3-2.1-1.3v-4.8h-1.3c0,0-0.4-1.7-0.4-2.8c0-1,1.6-0.9,1.6-0.9s-1.6-0.7-2.3-1c-0.7-0.3-0.9-1.5-0.9-1.5
			l1.8-1.2c0,0-2.5-0.4-2.1-1.2c0.4-0.7-1.4-4.3-1.4-4.3l-0.9,5.4l-1.7,1.5c0,0,1.3,0.7,1.6,0.7c0,0,0,0,0.1,0c0,0,0,0-0.1,0
			c-0.4,0.1-2.3,2.1-2.3,2.1l2.3-0.6c0,0,0.1,1.9-0.8,1.5c-1-0.4-2.3,0.4-2.3,0.4l0.8,1.7l1.5,1.8l-3,1c0,0,2.7,0.3,2.2,0.3
			c-0.5,0-2,2.4-2,2.4s2.3-1,2.7-0.6c0.4,0.4-0.4,1.8-0.6,1.5c-0.2-0.3-1.8,1.9-1.8,1.9s1.9,1.6,1.8,2.4s-2.2,0.1-3.3,0.4
			c-1.1,0.3-0.5,1.6-0.5,1.6l2,1l-3.3,2.5l3.1-0.4c0,0,0.5,2.1,0,3.1c-0.5,1-3.9,0.3-3.9,0.3l2.6,2.6c0,0-1.6,0-2.6,0
			c-0.9,0-1.4-1.9-1.6-2.5c-0.2-0.6-0.2-3.8-0.2-3.8s1.8-6,1.9-6.9c0.1-0.9-1.8-1.5-1.8-1.5s-3.3-0.1-3.7-1.2
			c-0.4-1,1.5-2.6,1.5-2.6s2-1.6,2.1-2.2s0.1-1.8-1.6-2.1s-4-0.7-4-0.7l0.2-3.2l1.4-1.5v-1.6c0,0-1.3,0-3.1,0s-1.6-1.8-1.6-1.8
			l0.1-1.8l1.2-1.5c0,0,1.5-0.6,2.3-1.3c0.8-0.7,0-2.2,0-2.2l-2,1.9c0,0-2.2-1.3-3.2-1.5c-0.9-0.1-1.8-2.4-1.8-2.4v-4.4
			c0,0-1.6-2.1-2.1-1.8s0,8.5,0,8.5s-1.9,0.7-3.4,0.6s-1.6,3.5-1.5,3.1s3.8-0.1,4.2,0.3s-1.2,2.1-1.2,2.1s-1.9,1.3-2.5,2.1
			c-0.6,0.7-0.6,2.4-0.6,2.4l2.3-1.2c0,0,1.6,0.3,1.9,2.4c0.2,2-0.5,1.6-0.5,1.6s-2.7,0.4-3.3,0.1c-0.6-0.3-2.3,0.7-2.3,0.7
			s2,1,2.3,1c0.4,0,1.5,1,1.5,1s0.8,1.2,0.8,3.1s-2.8,1-3.1,1.9c-0.2,0.9-0.7,2.6-0.7,2.6l-1.8-1l1.1-1.9c0,0,1.1-3.1,0.6-4.8
			c-0.5-1.7-2.3-0.8-2.3-0.8l0.7-3.7l-1.5-1.3l-1.2-1.5l1.2-1.9l-1.2-2l-2-0.3c0,0-0.8-1.2-0.1-1.3s0.9-2.4,0.9-2.4l-1.4-0.6
			l-0.8-1.3l2.2-1.5l-2.7-0.9V993l-1.2-2.9v4.6l-1.4,1.6v2.4l-1.1,1.3l1.1,1.3l-1.3,1.2l1.3,0.9l-1.3,1.2l-2.1,2.6h1.4l1.4-0.9v2.5
			l-1.1-0.1c0,0-1.8,1.3-0.8,1.3c0.9,0,0.8,2.5,0.8,2.5c-0.2,0.4-2.1,1.3-2.5,1.2c-0.4-0.1-3.3-1-4.5-2.8c-1.2-1.8,4.1-4.7,5.2-5.6
			c1.1-0.9,0-4.7,0-4.7s-2.9,0.7-4.7,0.6s-0.6-3.4-0.6-3.4l-0.5-3.8c0,0,1.2-4.9,1.1-6.2c-0.1-1.3-5.4-2.5-5.6-2.8s1.4-3.4,3.4-4.3
			c2-0.9,0.8-3.1,0.8-3.1s-4.5,0.1-5.5,0c-1.1-0.1,0.1-4,0.1-4s1.3-1.8,1.5-2.2c0.2-0.4,0-2.5,0-2.5l-3.2,0.7l-2.2-1.5l2.2-2.2v-3.8
			l-3.3-1.6l-1.8-4c0,0-0.9-4.7-1.6-4.7c-0.7,0,0,6.8,0,6.8s-0.3,2.5,0,3.7c0.2,1.2-2.8,0.6-3.6,0.6s-1.1,2.8-1.1,2.8
			s2.6-0.6,3.9,0.4c1.3,1-0.8,2.1-1.8,2.4s-3.2,2.2-3.2,2.2s2.5,0,2.7-0.6c0.2-0.6,2.9,3.7,3.1,4.3c0.1,0.6-3.5,0.3-5.3,0.1
			c-1.8-0.1-2.6,2.8-2.6,2.8s1.8-0.3,3.6-0.4c1.9-0.1,2,4,0,4.3c-2,0.3-4.8-1.3-4.8-1.3l1.1,1.9l2.9,3.7L97,989c0,0-3.1,0.4-4.5-0.1
			c-1.4-0.6-3.1,3.4-2.3,2.8c0.7-0.6,2.9,1.5,4,3.5s-0.1,2.6-1.5,3.8c-1.4,1.2-3.9-0.6-3.9-0.6s-1.8,0.9-2.3,1.5
			c-0.6,0.6,0.2,3.1,0.7,2.6c0.5-0.4,4.8,0.6,4.9,1.6c0.1,1-2.3,1.6-2.3,1.6l-3.6-0.6l-0.8-2.2l-0.2-4.9l1.1-6.3l-1.1,3.4l-1.6,1.3
			l-0.2,4c0,0,0.4,2.6,0,2.8c-0.4,0.1-1.7-0.7-1.7-0.7s-0.5-2.9-0.2-4c0.4-1,0-2.1,0-2.1s-0.9-0.9-2.3,0c-1.4,0.9-1.8,3.2-1.8,3.2
			s-2.8,0.7-3.3,0.7c-0.5,0-1.1-1.8-1.1-1.8s2.5-3.4,2.1-4.9c-0.4-1.5,4.2-3.2,4.2-3.2l0.6-2.8c0,0-10.6,0.3-11.2,0.2
			c-0.6-0.1,1.3-2.6,1.3-2.6s1.6-2,2.1-2.5c0.5-0.5,0.9-3.1,1.8-4c0.9-0.9,2.1-0.2,2.1-0.2l-2.1-2.5c0,0-3.4-1.4-5.3-1.6
			c-2-0.2-0.9-4.1-1-5.4c-0.1-1.3,0.6-2.6,0.6-2.6l1.6-4.9l-1.5-0.4l-3,0.5c0,0-2.5-1-2.6-1.6c-0.1-0.6,1.9-1.1,2-2
			c0.2-0.9,2.7-2.6,2.7-2.6l0.5-3.1l-4.1,0.5c0,0-1.9-1.1-2.1-1.9c-0.2-0.8-0.3-2.6-0.3-2.6l1.2-1.7l1.5-0.1l1.1-0.7V945
			c0,0-2-0.4-2.6-0.4c-0.5,0-2,0.3-2.7,0.2c-0.7-0.1-1.3-1.8-1.3-1.8l-0.2-2.8c0,0,1.2-0.8,2.7-0.6c0.9,0.1,1.2,0.2,1.4,0.3
			c-0.4-0.4-1.5-1.8-1.8-2c-0.3-0.3-3.4-0.4-3.8-0.7c-0.3-0.3-0.5-2.3-0.5-2.6s-0.4-3.6-0.4-3.6l-0.3-2h-1.6l-1.2,2.2l0.5,2.8
			c0,0-0.2,3-0.2,3.3s-1.1,0.8-1.1,0.8l-1.8,0.6l-0.5,1.4l1.1,0.6c0,0,2.4,1.5,3,3.2c0.5,1.8-0.5,0.9-0.5,0.9h-1.2
			c0,0-1.6-0.1-2-0.1c-0.3,0-2.2-0.8-2.2-0.8l2.2,2.6l1.9,0.8c0,0,0.9,1.1,1.3,2.1s-1.1,1.4-1.1,1.4h-1.8l-1.7-1.4l-2.6,0.4
			c0,0,1.5,0.4,1.8,0.5c0,0,0,0,0,0c0,0,0,0,0,0c-0.3-0.1-1.2,0.7-1.2,0.7s0.5,0.9,0.5,1.2c0.1,0.3,2,1.5,2,1.5l1.6,0.8
			c0,0,0.7,0.5,1.2,1.1c0.5,0.6-0.3,1.6-0.3,1.6s-3.3,0.6-3.7,0.2c-0.4-0.4-1.9,0-1.9,0l0.8,1.9c0,0,1.6,1.2,2,2.1
			c0.4,0.9,2.2,0.8,2.2,0.8s0.8,2.2,0.5,3.3c-0.2,1.2-3.7-0.4-4.8-0.2c-1.1,0.2-2,2.1-2,2.1l2.7-0.9l0.7,1.9c0,0,1.2,1.6,1.1,4.7
			s-2.3,3.4-2.3,3.4l-1.8,0.3l-2.8-0.3l-3.3,0.1c0,0,3.5,1.6,2.6,2.5c-0.9,0.9-0.2,2.4-0.2,2.4s2-1.6,2.7-2.4c0.7-0.7,2.2,1,2.2,1
			s0.5,1.8,0.6,2.1c0.1,0.3-1.5,0.7-1.5,0.7l-2.1-0.7l-2.1,1.3c0,0,0,0-0.1,0.6c-0.1,0.4-1,2.1-1.5,2.9c0.8-0.5,2.6-1.1,2.6-1.1
			l3.3,1v1.9c0,0-1.2,0.7-2.7,0.4c-1.5-0.3-2.5,0.4-3.3,1.5c-0.8,1,0.2,2.4,0.2,2.4s1.6,0.4,2.2,0.9s0,2.6,0,2.6s-2.3,0.6-2.5,1
			c-0.1,0.4-2.5,0.9-4.1,1.2s-1.8,2.5-1.1,2.2c0.7-0.3,1.1,2.2,1.1,2.2l-1.3,0.3c0,0-1.6-0.9-1.9-1.5c-0.2-0.6,1.3-3.2,1.3-3.2
			l2.6-2.2c0,0-3.9-0.3-4.6-0.4c-0.7-0.1-1.1-0.9-1.1-0.9s-0.2-2.5,0.1-3.4c0.4-0.9,0.9-2.2,0.9-2.2h-2.6c0,0-0.8-1-1.3-1.4
			c-0.2,0.1-0.4,0.1-0.4,0c-0.1-0.3,0.1-0.2,0.4,0c1.1-0.5,3.9-3.4,3.9-3.4l-3.6,0.1l-3.1-2.7h3.2l1.8-1.5l-1.5-0.3
			c0,0-3.5-1.3-2.2-1.5c1.3-0.1,0.2-2.2,0.2-2.2l-1.8-0.7l2.6-2.4l-1.8,0.1v-1.6l-2.6-0.7l-0.6-1.3c0,0,0.5-2.4,0.7-3.1
			c0.2-0.7,1.9,0,1.9,0l-1.6-2.4l-2.3,1v3.2c0,0-0.8,2.2-1.5,2.1s-2.2,1.8-2.2,1.8h1.6c0,0-1.1,1.3-1.3,1.6c0.4-0.4,1.3,0.9,1.3,1.6
			c0,0.7-1.3,1.2-1.3,1.2s-0.9,0.7-1.8,0.7c-0.8,0-1.2,1.6-1.2,1.6h2v1.9v2.1c0,0-2-0.1-2.8,0c-0.8,0.1-1.9,2.2-1.9,2.2L13,985
			l0.6,2.1c0,0,1.1,0.7,2,1.2c0.9,0.4,0,2.5,0,2.5s-1.9-0.3-2.1,0.1s-4.8-0.9-4.9-1.5s0.2-2.6,0.2-2.6l3.6-3.2l-3.3,1.3
			c0,0-1.1-1.2-2.1-2.7s0.8-2.6,0.8-2.6l3.2-2.5l-5-0.1L5.5,975l1.7-1.8c0,0-1.4-0.3-2-1c-0.6-0.7,0.5-1.6,0.5-1.6s2.1-1,1.4-1.2
			s-2.6-1.2-2.6-1.8c0-0.6,0.8-1.9,0.8-1.9l-2.3-1.3l-1.2-5.3l-0.6,5.6l-1.6,1.3l0.5,1.6l-1.9,1.9c0,0,2.2-0.7,1.9,1l-2.6,1.5
			c0,0,1.8-0.4,2.3,0c0.6,0.4,0,2.2,0,2.2h-1.6l-0.4,1.5c0,0,1.6,0,1.9,0s0,1.6,0,1.6h-2.2c0,0-1.5,2.2-0.6,1.6
			c0.9-0.6,1.8,0.7,1.8,0.7s0.2,1.6,0,3.1c-0.2,1.5-3.5,1.3-3.5,1.3l2.3,0.9l-3,1c0,0,2.8-0.1,2.9,1.4c0.1,1.5,0,1.4,0,1.4l-3.9-1.4
			l3.1,2.7v3.9c0,0-1.6,4.3-2.2,3.9c-0.6-0.4-4.1,2-4.1,2l4.1,3.5c0,0-2.8,2-4.1,1.6v152.6h526.7v-13.4L514,1143.4z M11.9,996.5
			l-1.6-0.9v-1.8l1.6,0.7V996.5z M38.9,1008.6c-1.2,0.1-5,1.8-5.5,1.2c-0.5-0.6,0-2.2,0-2.2l1.9-2.4h3.6
			C38.9,1005.2,40.1,1008.4,38.9,1008.6z M90.6,1014.3c-0.9,0.3-3.4-0.1-3.8,0c-0.4,0.1-1.3-0.7-0.8-1.5c0.5-0.7,1.4-1,1.4-1.6
			s-1.4-0.5-1.5-1.3c-0.1-0.9-0.8-2.5,0-2.4c0.8,0.2,1.7-1.1,2.2,0c0.6,1.1,1.1,2.4,1.1,2.4s1.5,0.9,1.5,1.3s1.3,2.4,1.3,2.4
			S91.5,1014,90.6,1014.3z M119.3,1022.9v-2.8h1.2C120.6,1021.2,119.3,1022.9,119.3,1022.9z M134.8,1026.3c0,0-1.4-1.7-0.6-2.5
			c0.8-0.8,2.2-0.9,2.2-0.9c0.5,0.7,0.6,3.4,0.6,3.4H134.8z M214.2,1071.5c-0.5,0.6-0.8,1.8-0.8,1.8s-2.3-0.5-3.2-0.5
			c-0.9,0-1.3-0.3-1.3-0.3s0.5-2.4,1.3-2.7c0,0,2.3,0.6,2.7,0S214.7,1070.9,214.2,1071.5z M235.5,1075.9c0,0,1.2-0.3,1.9,0
			c0.7,0.3,1,2.2,1,2.2s-1-0.6-1.3-0.2c-0.2,0.4-1.6,0-1.6,0V1075.9z M236.6,1082.5c-0.6,0.1-0.5,2.1-0.5,2.1s-1.8,0.6-2.6,0.5
			c-0.8-0.1,0-2.6,0-2.6l3.5-1l0.6-1.8h0.9l0.3,1.9C238.7,1081.6,237.2,1082.4,236.6,1082.5z M365.4,1091.9c0.5,0.1,1.5-1.2,1.5-1.2
			l0.7-1.7c0,0,1-0.2,1.2,0s1.3,1.5,1.3,1.5h1.6l1.5,2c0,0-0.4,0.9-1.1,1c-0.7,0.1-2.1,0.4-2.3,0.8c-0.2,0.4-0.9,0.8-1.6,0.5
			s-1.5-1-1.9-0.9c-0.4,0.1-1.3,0.6-1.3,0.6S365,1091.8,365.4,1091.9z M373.2,1100.4c-0.2,0.4-2.7,0.2-2.9,0s-2-0.9-2-0.9l-1.7,0.9
			c0,0-1.7,0.1-2.3-0.4c-0.5-0.5-1-0.7-1-0.7s1.2-1.1,2.4-2.1c1.3-1,1.3-1.3,1.3-1.3l2.2,1.3l0.3,1c0,0,0.9,0.2,1.7,0
			C372,1098.1,373.5,1100,373.2,1100.4z M445.9,1119.4c-0.6,0.3-1.3,0-1.3,0s0.5-3.1,0.7-3.8
			C445.3,1115.6,446.5,1119.1,445.9,1119.4z"/>
		<path class="st26" d="M27.3,988.1c0,0.1,0.2,0.1,0.4,0C27.4,987.9,27.2,987.8,27.3,988.1z"/>
		<path class="st26" d="M197.7,1023.8C197.7,1023.8,197.7,1023.8,197.7,1023.8C197.5,1024.1,197.5,1024.1,197.7,1023.8z"/>
		<path class="st26" d="M89.2,1009.9c0,0-0.5-1.3-1.1-2.4c-0.6-1.1-1.4,0.2-2.2,0c-0.8-0.2-0.1,1.5,0,2.4c0.1,0.9,1.5,0.8,1.5,1.3
			s-0.9,0.9-1.4,1.6c-0.5,0.7,0.5,1.6,0.8,1.5c0.4-0.1,2.8,0.3,3.8,0s1.4-0.7,1.4-0.7s-1.3-1.9-1.3-2.4S89.2,1009.9,89.2,1009.9z"/>
	</g>
</g>
<g id="Layer_6">
	<path class="st26" d="M-60.4,1012.8c0,0,40.4-2.7,45.2,4.6c4.7,7.4,40.7,4.8,45.4,13.7s28.9,14.2,28.9,14.2l26.1,20.3
		c0,0,25.3-5.3,39-1.2s32.8,9.8,32.8,9.8s14.4,13.6,16.2,7.5c1.8-6.1,20.4,12.1,20.4,12.1s24.2,6.6,25.6,9.9
		c1.4,3.3,20,20.1,21.9,18.1s22-1,24-0.6s20.3,9.3,23,9.2s26.3,7.9,28.8,2.5c2.5-5.4,36.1-18.5,36.1-18.5s20.1-18.7,27.4-18.9
		c7.3-0.2,9.8-29.7,96.3-12.3c0,0,50.9,29.9,61.8,37.6c10.9,7.7,22.3,8.7,27,9.9s19,11.5,22.4,11.4c3.3-0.1,14.9,6.2,20.2,5.4
		c5.3-0.8,16.6-3.1,23.3-0.7s25.7,13.2,31.1,13.1c5.3-0.2,7.9-4.3,17.2-3.9c9.3,0.4,31.7,12.4,37,10.9c5.3-1.5,21.5,6.7,27.4,2.5
		c5.9-4.2,56.2-37.2,63.6-37.4c7.3-0.2,51.1-29,51.1-29l27.8-6.9c0,0,32.7-19.9,40.7-22.4s20.3-12.2,20.3-12.2s25.1,15.3,30.1,24.5
		c4.9,9.2,37.4,22.9,38.1,24.9c0.7,2,40.7,21.5,47.4,24s16.1,1.5,19.5,4.8c3.4,3.2,15.7,11.6,15.7,11.6l20.2,7.8l6.9,6.8
		c0,0,31.8,14.4,33.8,14.4c2-0.1,35.4,2.9,35.3-1.1c-0.1-4,17-10.6,17-10.6s12.3-11.7,22.3-12s23.1-8.7,54.9,5.7
		s30.6,19.8,34.6,19.7c4-0.1,25.9-4.8,28.8,3.8c2.9,8.6,21.8,13.4,21.8,13.4l47-12.8c0,0,18.7,2.1,20.7,1.4c2-0.7-0.3-8.7,9-9.6
		s27.3-0.2,29.2-3.6c1.9-3.4,23.4-19.4,23.4-19.4s13.1-6.4,17.8-6.6c4.7-0.1,28.3-12.2,58.6-4.5c30.3,7.8,31.1,13.1,40.4,11.5
		c9.3-1.6,25.2-4.1,25.2-4.1l12.3,11l35.8-7.1c0,0,14.6,18.3,22,21.4c7.4,3.1,210.9,86.5,255.1,9.9c44.2-76.6-3.3,235.7-3.3,235.7
		l-2055.5-36.8L-60.4,1012.8z"/>
</g>
<g id="Layer_8">
	<g>
		<path class="st26" d="M-76.3,1301l9.8-7c0,0-2.8-1.3-6-1c-2.7,0.2-5.7,7.6-6.7,10.2C-78.2,1301.8-76.3,1301-76.3,1301z"/>
		<path class="st26" d="M146.2,1124.2c-0.1,0-0.2-0.1-0.3-0.1c0.3,2.5,1,4.4,1.8,5.7C148.7,1127.9,149.2,1125.5,146.2,1124.2z"/>
		<path class="st26" d="M150.8,1120.1c-0.1-0.8-0.3-1.3-0.3-1.3S150.7,1119.3,150.8,1120.1z"/>
		<path class="st26" d="M168.7,1114.1c0,0,2.1,4,4,6.5c0-0.1,0-0.1,0-0.1L168.7,1114.1z"/>
		<path class="st26" d="M149.8,1014.8c-1.9,0.5-2.9,1.1-2.9,1.1S148.1,1015.4,149.8,1014.8z"/>
		<path class="st26" d="M199.2,1081.3c0,0.3,0.4,0.1,1-0.4C199.5,1081,199.2,1081.1,199.2,1081.3z"/>
		<path class="st26" d="M184.8,1078.2c-0.6,0-1.1,0.2-1.5,0.5C185,1078.4,185.8,1078.2,184.8,1078.2z"/>
		<path class="st26" d="M-37.4,1337.7l275.8,12.7c0,0-91.8-108.6-89.2-115.3c2.7-6.7,6-11.4,10.7-10.1c4.7,1.3,18.8,2.7,18.8,2.7
			l-4.7-8.7l-14.7-4c6.7-5.4,2-10.1,2-10.1s-10.1-1.3-12.7-0.7c-2.7,0.7-8,3.4-8,3.4l-7.4-9.4l-2.7-8c8,1.3,12.7,7.4,12.7,7.4
			s10.1,4.7,8.7-0.7c-1.3-5.4-7.4-12.1-7.4-12.1c4.7-6,10.7-2.7,16.8,5.4c6,8,5.4-9.4,5.4-9.4l-16.8-10.1c0,0,20.1-2.7,22.8,0
			c2.7,2.7,14.1,5.4,14.1,5.4l-4-11.4c0,0,10.1-2,14.1,5.4c4,7.4,14.7,9.4,7.4-5.4c-7.4-14.7,14.1,4,16.1-0.7
			c2-4.7-10.1-12.1-10.1-12.1s-12.1-7.4-3.4-9.4c8.7-2,14.7-6.7,9.4-7.4c-5.4-0.7-17.4-6-17.4-2s-5.4,4.7-10.7,2.7
			c-4.3-1.6-6-7.1-4.8-9.6c-3.8,1.9-12,5.5-12,5.5s-1.3-9-6.4-5.4c-5,3.7-9,9.4-9,9.4s-0.7-13.1-2-12.7c-1.3,0.3-0.7,17.1-3.7,18.1
			c-3,1-24.8-1.3-26.1,0.7s-6.7-3-6.7-3s-6.5,1.9-5.9,0.7c-0.8-1.3-1.9-6-2.2-8.5c-4.9-2.3,0-3.9,0-3.9s1-3.7,3.7-4.4
			c2.7-0.7,4,2.3,4,2.3c-0.2,2.2-0.2,4.2,0.1,5.9c0.1,0-5.2,1.4-5.1,1.5c2.9,1.4,0.3,4.2,6.9,4.2c1.1,1.8,2.4,2.2,3.2,0.8
			c1.3-2.3,0.4-7.9-0.1-10.4c-0.2-0.8-0.3-1.3-0.3-1.3s0.1,0.5,0.3,1.3c0.5,2.3,1.8,6.9,3.8,8.1c2.7,1.7,4-14.4,2.3-17.8
			c-1.7-3.4,3-2.3,3-2.3s5,10.1,5.4,15.4c0.3,5.4,4.4,11.4,6.4,8.7c1.9-2.5,1.1-10.6,1-11.6c-2-2.5-4-6.5-4-6.5l4,6.4c0,0,0,0,0,0.1
			c1.2,1.5,2.4,2.5,3,1.6c1.7-2.3,0-10.4-1.7-12.4s13.7,0,14.1,4s7-3.7,2.3-6.7c-4.7-3,16.1-4.7,18.4-1.7c2.3,3-3.7-10.1-3.7-10.1
			s17.4-5.4,20.1-3s-0.7-9.4-5.7-7.7c-5,1.7,10.7-5.4,10.7-5.4s-24.9,0.5-30.2,1.6c-0.6,0.5-1,0.7-1,0.4c0-0.1,0.4-0.3,1-0.4
			c2.7-2,9.7-9.3,9.7-9.3s-2.7-3.7-8,0.3c-5.4,4-21.5,13.4-21.5,13.4s0.5-5,2.9-6.6c-4.2,0.7-13.9,2.1-15.6,3.6
			c-2.3,2-2.7-10.4-5-12.1c-2.3-1.7,0.7,5.4-4,6.7c-4.7,1.3-13.4,1.3-13.4,1.3l5.7-12.1l-7.7-1c0,0,3-5.4,5.7-4.4
			c2.7,1,7.4-0.3,6.7-1.3c-0.7-1,4.7,1.7,4.7,1.7s-1-6.4-3.7-7c-2.7-0.7,9.7-1.7,11.4,0.3s8,3.4,8,1c0-2.3-3.4-6-3.4-6
			s14.1-5.7,17.1-4.7s2.3-6.5,2.3-6.5l6.4,3.5c0,0,0.3-6.4-6.4-9.4c-6.7-3,8.7-2,6.7-5.7c-2-3.7-13.1-2.3-13.1-0.7
			s-0.7-10.4-0.7-10.4s-4.7-1-4.7,2s-1.3,6-1.3,6l-4-8.4l-1.2,2.3c0,0,0.2-2-4.9-1c-0.6,0.1-1.2,3.9-1.5,4.2c2,1.5,4.2,1.2,3.3,2.2
			c1.2,2.2,0.5,3-0.2,4.4c-1.3,2.7-3.7,8.7-6.7,7.7c-3-1,0.7-6,0.7-6s3.7-9.4-3.7-2.3c-7.4,7-10.1,10.1-10.1,10.1s2.7-6.7,1.7-8.7
			s-11.7,9.8-14.7,10.3c-3,0.5-7.4,2.1-7.7-2.2c-0.3-4.4,1.3-9.4,1.3-9.4s7,3.7,8.4,3.4s4.7-6.7,2.3-8.4c-2.3-1.7,8.4,3.4,8.4,3.4
			s4.4-3,2.7-4.4c-1.7-1.3,8.2,0.8,9.2,1.8c0.4,0.4,2-0.7,2.7-1.5c1.3-1.4-0.6-4.2,0.2-5.1c-0.9-0.7,0,0-2.1-0.6
			c-6.2-1.8-10.8-1.2-13.5-0.5c-1.7,0.7-2.9,1.1-2.9,1.1s1-0.6,2.9-1.1c3.5-1.4,8.7-3.7,8.5-4.6c-0.3-1.3-17.1,0-18.1,1.7
			s-3.7-0.7-3.7-0.7s4.2-3.9,4.2-5.2c0-1.3-7.2,0.8-9.9,1.5c-2.7,0.7,3.5-2,2.3-3.4c-1.2-1.3-8.2,2-8.7,2.5s-6.7-2.2-2.7-5.4
			c4-3.2,11.1-0.7,11.1-0.7s-6-7.2-7.9-7.7c-1.8-0.5-4-5-2-6.4c2-1.3,6.5,4.4,6.5,4.4s4.5,0.3,2.3-3.7s-6.2-7.5-6.2-7.5
			s13.5-0.3,17.4,0.4c-2.7-1.3-9.6-5.3-10.4-5.4c-1-0.2,8.2-1.5,10.1-0.2c1.8,1.3,4.5,2.2,4.5,2.2s4-2.3,2.8-4.2
			c-1.2-1.8,12.1-0.3,12.4,0.7s5-2.8-1.2-5.7c-6.2-2.8-14.6-2-14.6-2s5-6.9,2.3-7.9c-2.7-1-17.3,12.6-17.3,12.6s2-6.2,4.4-7.5
			c2.3-1.3-2.7-3-3.9-1.5s-6.7,2.5-7.2,0.3c-0.5-2.2,6.4-2.5,6.4-2.5s1.5-3.4-1.2-3.4c-2.7,0-6-1.3-6-1.3s1.3-3.9,5.7-3.2
			c4.4,0.7,7.4,2.3,7.4,2.3s2.5-3,0.2-4.9c-2.3-1.8-6.4-3.5-6.4-3.5s17.9-0.5,17.9-3.7l2.2-2.5c0,0-7.5-1-7.5-2s5.4-1,5.4-1l5.2,3.2
			c0,0,4.5-1.2,2.3-3.9c-2.2-2.7-9.9-4.7-9.9-4.7l7.5-11.1c0,0,2-3.4-4.2-1.3c-6.2,2-6.5,6.5-8.4,6.5c-1.8,0,4.2-12.5,4.2-12.5
			s-10.6,0.1-10.7,6.1c0,0.5,1.7-0.4,1.7,0.2c3.5-1.1,3,2.7,2.8,4.5c0,0.7,0.8,2.5,0,3.4c0.5,3.1,0.5,4.7,0.5,5.2
			c0,0.8-6.4,0.2-6.4,0.2s0.1-3.3,2-5.4c-0.3-2-0.6-4.3-0.6-6.5c-0.9,0.3-2.1,0.8-3.7,1.8c-8,4.7-9.2,5-9.2,5s-1.3-5,0.5-6.7
			c1.8-1.7,5.7-6.9-5.5-12.4c0,0,5.5-5.9,5.7-8.5c0.2-2.7-4.2-4.7-4.2-4.7s3.9-9.4,9.9-9c6,0.3,14.9-0.5,14.9-0.5s-0.8-4.2-3-4.7
			c-2.2-0.5,6.7,0.2,6.7,0.2s1.7-4.5-4.4-4.9c-6-0.3-8-1.3-8-1.3s6-7.6,7.4-7.7c1.3-0.2-0.8-6.4-5-2.2c-4.2,4.2-5.4,8.2-6.9,7.5
			s-4.9-3-3.7-4.9c1.2-1.8,6.7-8.2,6.7-8.2s-0.5-6.4-4.5-1.2c-4,5.2-9.6,3.5-9.6,3.5l-3.2,3l-1.8,5.9c0,0-3.5-4.2-8.5-4
			c-5,0.2-12.1,6.4-12.1,6.4s-2.8-0.5,0.3-3.7c3.2-3.2,21.1-13.2,21.1-13.2s2-5-4.2-2.5c-6.2,2.5-10.6,5-10.6,5l1.2-7
			c0,0-4.9,0.3-7.4,2.7c-2.5,2.3-3.2-1.3-0.7-3.9c2.5-2.5,21.3-19.3,21.3-19.3s0.8-5.4-12.2-1.3c0,0,2.3-9.7,0.3-11.4
			c-2-1.7-2.8-6.9-11.7-1.3c0,0-1-3.9,3.4-4.7c4.4-0.8,11.6-3,11.6-3s6.9-3-1.3-5.2l-11.9,3l3.4-4.7c0,0-0.8-8.7-7.2-3.9
			c0,0-0.3,3.5-2,3.5c-1.7,0-2.8-7.7-1.8-8.5s19.1-17.1,19.1-17.1s1.5-5.9-5.5-3.4s-11.2,7-11.2,7s0.3-47.4-5.9-46.2
			c0,0-7,33.7-5,42.7c2,9-10.3-11.3-10.3-11.3s-4,1.3-3.8,4.8c0.3,3.5,13.8,23.4,13.8,23.4s2.8,7.5,0.5,7.3
			c-2.3-0.3-13.3-12.6-13.3-12.6s-5.8,0.5-3.8,4.5S43,809.3,43,809.3h-4.8c0,0-3-0.5,2,6c5,6.5-4.3,1.3-4.3,1.3s-9.6-7.5-7.5,2
			l12.1,9.5l-10.8,1.3c0,0-3.3,3.8-1.5,4.3c1.8,0.5,7.1,8.8,6.3,8.8c-0.8,0-5.5,0-5.5,0l-7-7v5.3v2.8l-8-1.8v4l-13.3-5.3
			c0,0-3.5,0.8,0,5.3l10.1,3c0,0-1.8,3.3-1.3,5c0.5,1.8,14.3,6.3,14.3,6.3l-9.8,5.3c0,0-1,2,0.8,2.8c1.8,0.8,11.3,0,11.3,0
			s3.2,3.3,0,3.8c-3.2,0.5-7.8,0-7.8,0s-0.5,2.3,1,2.8s8.3,3,9.3,4c1,1-0.5,2.4-0.5,2.4l-9.8-3.4c0,0-2.5,1.5-1.3,3.4
			c1.3,1.9,7.5,5.7,7.5,5.7s-2.3,3-3.5,2.5c-1.3-0.5-11.6-12.8-11.6-12.8s-2.5-0.5-2,2.8l4.5,7.8c0,0-18.4-9.6-20.4-7
			c0,0-4.3-0.3-3.3,1.1c1,1.4,7,2.2,7,4.2s-1.8,4.1-1.8,4.1l1.5,3l7.8,4.3c0,0,3.5,2.3,0.8,2.5c-2.8,0.3-9.8,3.5-9.8,3.5
			s-0.5,2.5,2.5,2.5s11.8,0,11.8,0l-1.3,4.3c0,0,8.8-0.8,9-2.8c0.3-2,9.6,4.8,9.3,6c-0.3,1.3-6.5,1.5-7.3,7.3c-0.8,5.8-7.3-6-7.3-6
			s-3.8-2.3-6.8,1.8c0,0-6.8-4.3-9.3-2.8s7,10.1,7,10.1s-2.8,7-4.8,7.5s0.8,2.5,2,2.3c1.3-0.3,10.6-6.8,12.6-3.3l11.1-0.5
			c0,0,1.8,10.1,0.3,10.6c-1.5,0.5-9,0-9.3,1.5s3.5,4,3.5,4s-7.3,0.8-7.3,1.8s-8.8-7.5-8.8-7.5s-3,1-2.8,2.3
			c0.3,1.3-3.3,1.8-3.8-0.5c-0.5-2.3-3.8-7.8-3.8-7.8s-2.8-2.3-3.8,0.8s-1.3,5.3-1.3,5.3l-3.3-6.5c0,0-2-3-3.8,0.3
			c-1.8,3.3,0,6.3,0,6.3s-5.3-2-8.8-1.8c-3.5,0.3,2.8,4,2.8,4l6.8,4c0,0,1,0.7-2.3,1.3s-8.4,5.2-8.4,6.5c0.1,1.3,8.6-0.5,9.4,0
			c0.8,0.5-4.8,7.8-4.8,7.8s0.8,0.3,2.3,0c1.5-0.3,5.8-2.8,5.8-2.8s1.3,0.7,1.3,2.9c0,2.2,9-3.1,7.8-4.9c-1.3-1.8,10.1-2.3,9.8-1
			c-0.3,1.3,4.8,2,2.8,3.5s-8.8,0.2-10.3,2.9c-1.5,2.6-3.5,6.4-3.5,6.4s-15.8-0.3-15.3,1.3c0.5,1.5,10.1,3,10.1,3s4.3,1.8,2.8,2.5
			c-1.5,0.8-18,8.3-17.9,11.1c0.1,2.8,4.6,2,4.6,2l9.8-3.3l-0.8,3.4c0,0,5-2.1,5.3-3.1c0.3-1,7.3-3.5,7.3-3.5l2,8.5c0,0,4,0,3.8-1.8
			c-0.3-1.8,1.5-8.8,1.5-8.8l3.8-1.8c0,0,3,0.3,2.8,3c-0.3,2.8-2.3,6.3-2.3,6.3s-5.5,4-5.5,5s0,4,0,4s5-2.5,6.8-5.3
			c1.8-2.8,4.8,0,4.8,0s2,7.5,1,8.8c-1,1.3-14.8,1.8-14.8,1.8s-4.5,8.5-3.5,10.3c1,1.8-10.1-2.8-10.1-2.8s-4,2.6-3.8,3.2
			c0.3,0.6-12.6-3.7-12.6-3.7s-5.5,0.9-2.4,3.7s12.8,6.6,11.3,9.6s-15.6-7.5-15.6-7.5v6.5c0,0-17.6-0.8-18.4-3.8s-2,3-2,3
			s-14.3,0.3-15.1,2.3s0,3.5,0,3.5s8.3,1.3,10.1,1.8c1.8,0.5-0.8,5.3-0.8,5.3s10.6,1.5,10.8,0c0.3-1.5,5-2,5-2s-6,6.8-5.3,7.5
			c0.8,0.8,3.8,0,3.8,0s9.6-11.6,10.6-9.8c1,1.8-0.5,7.3-0.5,7.3l-2.8,4.3c0,0,3.8,4,5,3.3c1.3-0.8-4.8,5.5-4.8,5.5s2.8,2,5.5,1.8
			c2.8-0.3,9.8-3.3,9.8-3.3s2.3,9.8,4,9.8c1.8,0,2.5-11.8,2.5-11.8s5,1.5,5,3c0,1.5,7.3-7.3,7-8c-0.3-0.8,4,0.8,3.5,2
			c-0.5,1.3-2.8,3-2.8,3l4.3,5.3l-9.3,0.3c0,0-2.5,1-1.3,2.5c1.3,1.5,6,3.8,6,3.8s-12.1,5-12.6,6.3s7,2,7,2l6,3.3h9.3l-5.5,5.5
			c0,0-32.4-7.5-34.2-6.3c-1.8,1.3-2.8,4.8-2.8,4.8l-4-3.8c0,0-4.8-2.8-3,2c1.8,4.8,1,3-0.3,3.3c-1.3,0.3-19.6-8-23.1-5.5
			c-3.5,2.5,3.3,4.3,3.3,4.3s14.8,9,13.6,11.8c-1.3,2.8-9.6,7.8-9.6,7.8s-2.8,7.8,4.3,5s9.6-7.3,11.6-5.8c2,1.5,1.5,9.3,1.5,9.3
			l5.8-6.3c0,0,2.5,2.3,1,3.8c-1.5,1.5-8.3,8.3-8.3,8.3s2.5,5.5,7.8,3.8s9.8-9,10.8-7.5c1,1.5,3.5,10.6,5.5,10.8
			c2,0.3,8.3,5.3,8.8,4c0.5-1.3,7-9,8.5-8.8c1.5,0.3,4,4,3,5s-7.1,7.8-7.1,7.8s-4.5,9.6,11.6,9.6c0,0-0.5,7.5-5.3,9.3
			c0,0-8-10.1-20.9-5.8l-10.3-7c0,0-7-2-2.3,2.5c4.8,4.5,9.8,10.3,9.8,10.3s-2.3,0.8-4.8,0c-2.5-0.8-6.8,0.3-6.8,0.3s-6.5-1.8-8-3.4
			c-1.5-1.5-4.5-9.6-4.5-9.6s-4.3-4.8-7,0.5l-1,4l-9.3-7.8c0,0-4-2.8-2.5,1c1.5,3.8,5.3,10.1,5.3,10.1s-2.5,1.3-5.5,0.8
			c-3-0.5-9.3-3-11.3-2.5c-2,0.5-8,0.5-8,0.5s6,7.2,7,6.4c1-0.8,9,2.9,9,2.9l-1.3,2.8l2.3,2.5c0,0-8.8-2-9.6,0c-0.8,2,4,4,4,4
			l-14.1,6.3c0,0-10.3,11.1,2.8,7c13.1-4,15.8-7,16.6-6s-4.5,8.5-4.5,8.5s-0.3,3,1.5,3.3c1.8,0.3,7.5-3.8,7.5-3.8s4.5-8.8,6-8.3
			c1.5,0.5,7.3-0.3,5,2.5c-2.3,2.8-3.5,9.6-3.5,9.6s8.8-6.3,8.8-9.3s6.3,0,6.3,0l-6.8,6.8c0,0,8.3-2.3,10.3,0.5c2,2.8-7,9.3-7,9.3
			s-0.3,3.5,1.8,3c2-0.5,4.5,0,4.5,0l-5.5,13.8c0,0,4.5,3,8.5-2c4-5,5-12.3,5-12.3s3.5,1,3.8,3.3c0.3,2.3,3,3.5,3,3.5
			s3.3-9.3,4.8-9.3s4.5,0.8,4.5,0.8s-8.5,11.1-7.5,12.3c1,1.3,2,4.7,2,4.7l6.3-1.9c0,0,4.5-7.3,4.8-10.1c0.3-2.8,2.8-5,3.8-3.5
			c1,1.5,10.3,20.1,5.3,20.6c-5,0.5-13.6,3.3-15.3,2c-1.8-1.3-5-4-5-4s-4,0.8-2.5,3c1.5,2.3,4,5.8,2.3,6.5s-10.3,2-10.6,3
			s-7.8,3-7,5c0.8,2,2.8,5.8,1,4.8c-1.8-1-7.3-7.5-7.3-7.5s-3.3-1.8-3,0.8c0.3,2.5-1,5-1,5s-8-5.4-12.1,1.9l-23.6-12.2
			c0,0-6.8-2.5-1.5,2.8c5.3,5.3,9.6,9.5,9.6,9.5l-17.3-2.7c0,0-13.1-2.3-14.8-0.3s7,4.8,7,4.8l9.8,4.3c0,0,1.8,5.3,4.3,4.5
			s-8,7.8-8,7.8s-2,2.3-1,3.5s12.6-4.5,14.3-2.5s4.8,2.6,7.5,2.7c2.8,0.1,11.3-4,12.8-3.2s7.8,6,6.3,7c-1.5,1-19.9,6-19.9,6
			s-3.3,3.3,0.8,4.3s20.6-5.8,21.1-4.3c0.5,1.5,6-1.5,3.8,2c-2.3,3.5-3.8,6.3-3.8,6.3l8.3-2c0,0,2-4,4.3-4.8
			c2.3-0.8,5.5,3.3,5.5,5.3s4.3,12.6,4.3,12.6s-6.5,1.8-8,0c-1.5-1.8-8-1.3-8-1.3l0.5,5.8c0,0-16.3,1.5-16.8,3.8
			c-0.5,2.3-4.5-3-4.5-3s-4.3-2.5-5,1.8s3,4.8,3,4.8s-8.8-0.8-10.1-2.5s-18.4-8.3-21.4,0.5c0,0-11.3-6.8-12.1-7.8s-10.8-4.3-4.5,3
			c6.3,7.3,11.1,9.3,11.1,9.3l-23.1,1.3c0,0-13.3,2.5-2,4.5s14.3,2,14.3,2s-4.3,4.5-1.8,6.8c2.5,2.3-11.8,2-11.8,2s-9.3,6.3-0.8,7
			c8.5,0.8,21.1-3.8,21.9-5s2,2.8,2,2.8s-1.5,6,0,8.5c1.2,2,4.2-4.2,5.3-6.7c-0.1-0.7,0.3-1.4,0.8-2c1-2.6,4-9.9,6.7-10.2
			c3.3-0.3,6,1,6,1l-9.8,7c0,0-1.8,0.8-2.9,2.1c-0.2,0.6-0.3,0.9-0.3,0.9s-0.2,0.4-0.5,1c0,0.6,0.3,1.1,1,1.7c3.3,3,13.6-2,13.6-2
			s9.3-7.3,9.6-5.5c0.3,1.8,2.8,1.8,0.8,4.5c-2,2.8-8.8,4-8.8,7s5,1.4,5,1.4s4.8,0.9,2.8,2.4c-2,1.5-10.3,11.3-10.3,11.3l1,10.1
			c0,0,9-12.7,11-11.6c2,1,4.7-6,6-5c1.3,1,4,7,4,7l6,6.7l12.1-19.1l7.7,16.4l4.7-2.3l-4.7-12.1c0,0,9,2.7,8.7,1.3c-0.3-1.3-2-9-2-9
			s-2.3-4.7,0.3-4.7c2.7,0,9.4,4,10.4,3c1-1-4.4,5.4-3.7,7c0.7,1.7-0.3,7.4-0.3,7.4L-37.4,1337.7z M105.7,1093c0,0,4.7,6.7,4.7,8.7
			s-4.7,0-4.7,0V1093z M86.7,889.3c3.5-3.7,1.5,2.3,1.5,2.3l-4.1,5c0,0-2.9,0.5-2.6-1C81.7,894,86.7,889.3,86.7,889.3z M81.4,919.2
			l7.4,4.3H77.4C75.6,919.9,81.4,919.2,81.4,919.2z M73.4,877.4l4,3.6c0,0-3,3.7-4,2.7C72.4,882.7,73.4,877.4,73.4,877.4z
			 M66.8,827.9c0,0-0.3,8.5-1.9,8c-1.6-0.5-1.6-3.5-1.9-4.5S66.8,827.9,66.8,827.9z M60.1,993.5c0,0,4.7,3.7,4,5c-0.7,1.3-2,5-2,5
			s0.3-5.7-2-5C57.8,999.2,60.1,993.5,60.1,993.5z M28.1,961.3c2.5-1.9,6.8-3.4,6.8-3.4s2-0.5,1.6,1.2c-0.4,1.7-7.5,5.8-7.5,5.8
			S25.6,963.2,28.1,961.3z M21.3,950.3c0,0,3.8,7.3,3,7.5c-0.8,0.3-5.8-5.5-5.8-5.5L21.3,950.3z M12.9,1011.6c1.3-2,11.6,0,11.6,0
			l-7.6,5C16.9,1016.6,11.5,1013.6,12.9,1011.6z M1.2,1015.2l1.1-8.4c0,0,7.9-0.5,8.1,0.2c0.2,0.7,0.7,2.3-0.4,2.4s-3-0.7-3.9,0
			s-1.9,1.4-1.9,1.4s-1.3,6.3,0,7.3c1.3,1,1.4,0.5,1.4,0.5s-0.3,1.7-1.5,1.2S1.2,1015.2,1.2,1015.2z M-6.9,1096
			c-3,1-5.8,5.7-5.8,5.7s1.1,2,4.2,1l-8.7,7.7c0,0-3.7-5.7-1.7-7.7s10.4-9.7,10.4-9.7S-3.9,1095-6.9,1096z"/>
		<path class="st26" d="M213.6,1118.1c-0.7,0.1-1.1,0.6-1.4,1.2C213.8,1118.5,214.6,1117.9,213.6,1118.1z"/>
		<path class="st26" d="M-79.3,1303.1c-0.5,0.6-0.8,1.2-0.8,2c0.3-0.6,0.5-1,0.5-1S-79.5,1303.6-79.3,1303.1z"/>
	</g>
	<g>
		<path class="st26" d="M1879.4,1329l-11.3-7c0,0,3.2-1.3,6.9-1c3.1,0.2,6.6,7.6,7.7,10.2C1881.5,1329.8,1879.4,1329,1879.4,1329z"
			/>
		<path class="st26" d="M1640.9,958.4c0,0-6.9,2.7-6.9,1.8c0-0.5,0.7-2.9,1.2-6C1637.3,956.3,1640.9,958.4,1640.9,958.4z"/>
		<path class="st26" d="M1623.2,1152.2c0.1,0,0.2-0.1,0.3-0.1c-0.4,2.5-1.2,4.4-2.1,5.7C1620.4,1155.9,1619.8,1153.5,1623.2,1152.2z
			"/>
		<path class="st26" d="M1617.8,1148.1c0.2-0.8,0.3-1.3,0.3-1.3S1618,1147.3,1617.8,1148.1z"/>
		<path class="st26" d="M1597.3,1142.1c0,0-2.4,4-4.6,6.5c0-0.1,0-0.1,0-0.1L1597.3,1142.1z"/>
		<path class="st26" d="M1619,1042.8c2.2,0.5,3.4,1.1,3.4,1.1S1621,1043.4,1619,1042.8z"/>
		<path class="st26" d="M1562.2,1109.3c0,0.3-0.4,0.1-1.1-0.4C1561.8,1109,1562.2,1109.1,1562.2,1109.3z"/>
		<path class="st26" d="M1633.6,951.9c-0.2-1.9-1.8-5.2,2.3-4.1c-0.1,2.2-0.4,4.5-0.7,6.5C1634.3,953.4,1633.6,952.6,1633.6,951.9z"
			/>
		<path class="st26" d="M1578.8,1106.2c0.7,0,1.2,0.2,1.7,0.5C1578.5,1106.4,1577.5,1106.2,1578.8,1106.2z"/>
		<path class="st26" d="M1830.7,1356c0,0-1.2-5.7-0.4-7.4s-5.4-8-4.2-7c1.2,1,8.9-3,12-3s0.4,4.7,0.4,4.7s-1.9,7.7-2.3,9
			c-0.4,1.3,10-1.3,10-1.3l-5.4,12.1l5.4,2.3l8.9-16.4l13.9,19.1l6.9-6.7c0,0,3.1-6,4.6-7c1.5-1,4.6,6,6.9,5s12.6,11.6,12.6,11.6
			l1.2-10.1c0,0-9.6-9.8-11.9-11.3c-2.3-1.5,3.2-2.4,3.2-2.4s5.8,1.6,5.8-1.4s-7.8-4.3-10.1-7s0.6-2.8,0.9-4.5
			c0.3-1.8,11,5.5,11,5.5s11.9,5,15.6,2c0.7-0.6,1.1-1.2,1.1-1.7c-0.3-0.6-0.5-1-0.5-1s-0.1-0.4-0.4-0.9c-1.3-1.3-3.4-2.1-3.4-2.1
			l-11.3-7c0,0,3.2-1.3,6.9-1c3.1,0.2,6.6,7.6,7.7,10.2c0.6,0.6,1,1.2,0.9,2c1.3,2.5,4.7,8.8,6.1,6.7c1.7-2.5,0-8.5,0-8.5
			s1.4-4,2.3-2.8s15.3,5.8,25.2,5s-0.9-7-0.9-7s-16.5,0.3-13.6-2c2.9-2.3-2-6.8-2-6.8s3.5,0,16.5-2s-2.3-4.5-2.3-4.5l-26.6-1.3
			c0,0,5.5-2,12.7-9.3c7.2-7.3-4.3-4-5.2-3s-13.9,7.8-13.9,7.8c-3.5-8.8-23.2-2.3-24.6-0.5c-1.4,1.8-11.6,2.5-11.6,2.5
			s4.3-0.5,3.5-4.8c-0.9-4.3-5.8-1.8-5.8-1.8s-4.6,5.3-5.2,3s-19.4-3.8-19.4-3.8l0.6-5.8c0,0-7.5-0.5-9.3,1.3c-1.7,1.8-9.3,0-9.3,0
			s4.9-10.6,4.9-12.6s3.8-6,6.4-5.3c2.6,0.8,4.9,4.8,4.9,4.8l9.6,2c0,0-1.7-2.8-4.3-6.3c-2.6-3.5,3.8-0.5,4.3-2
			c0.6-1.5,19.7,5.3,24.3,4.3c4.6-1,0.9-4.3,0.9-4.3s-21.1-5-22.9-6c-1.7-1,5.5-6.3,7.2-7c1.7-0.8,11.6,3.3,14.8,3.2
			c3.2-0.1,6.7-0.7,8.7-2.7c2-2,15.3,3.8,16.5,2.5s-1.2-3.5-1.2-3.5s-12.2-8.5-9.3-7.8s4.9-4.5,4.9-4.5l11.3-4.3
			c0,0,10.1-2.8,8.1-4.8c-2-2-17.1,0.3-17.1,0.3l-20,2.7c0,0,4.9-4.2,11-9.5c6.1-5.3-1.7-2.8-1.7-2.8l-27.2,12.2
			c-4.6-7.4-13.9-1.9-13.9-1.9s-1.4-2.5-1.2-5c0.3-2.5-3.5-0.8-3.5-0.8s-6.4,6.5-8.4,7.5c-2,1,0.3-2.8,1.2-4.8c0.9-2-7.8-4-8.1-5
			s-10.1-2.3-12.2-3c-2-0.8,0.9-4.3,2.6-6.5c1.7-2.3-2.9-3-2.9-3s-3.8,2.8-5.8,4c-2,1.3-11.9-1.5-17.7-2c-5.8-0.5,4.9-19.1,6.1-20.6
			c1.2-1.5,4.1,0.8,4.3,3.5c0.3,2.8,5.5,10.1,5.5,10.1l7.2,1.9c0,0,1.2-3.4,2.3-4.7c1.2-1.3-8.7-12.3-8.7-12.3s3.5-0.8,5.2-0.8
			c1.7,0,5.5,9.3,5.5,9.3s3.2-1.3,3.5-3.5c0.3-2.3,4.3-3.3,4.3-3.3s1.2,7.3,5.8,12.3c4.6,5,9.8,2,9.8,2l-6.4-13.8c0,0,2.9-0.6,5.2,0
			c2.3,0.5,2-3,2-3s-10.4-6.5-8.1-9.3c2.3-2.8,11.9-0.5,11.9-0.5l-7.8-6.8c0,0,7.2-3,7.2,0s10.1,9.3,10.1,9.3s-1.4-6.8-4.1-9.6
			c-2.6-2.8,4.1-2,5.8-2.5c1.7-0.5,6.9,8.3,6.9,8.3s6.7,4,8.7,3.8c2-0.3,1.7-3.3,1.7-3.3s-6.1-7.5-5.2-8.5s4.1,2,19.1,6
			c15,4,3.2-7,3.2-7l-16.2-6.3c0,0,5.5-2,4.6-4s-11,0-11,0l2.6-2.5l-1.4-2.8c0,0,9.3-3.8,10.4-2.9c1.2,0.8,8.1-6.4,8.1-6.4
			s-6.9,0-9.3-0.5c-2.3-0.5-9.6,2-13,2.5c-3.5,0.5-6.4-0.8-6.4-0.8s4.3-6.3,6.1-10.1c1.7-3.8-2.9-1-2.9-1l-10.7,7.8l-1.2-4
			c-3.2-5.3-8.1-0.5-8.1-0.5s-3.5,8-5.2,9.6c-1.7,1.5-9.3,3.4-9.3,3.4s-4.9-1.1-7.8-0.3c-2.9,0.8-5.5,0-5.5,0s5.8-5.8,11.3-10.3
			c5.5-4.5-2.6-2.5-2.6-2.5l-11.9,7c-14.8-4.3-24,5.8-24,5.8c-5.5-1.8-6.1-9.3-6.1-9.3c18.5,0,13.4-9.6,13.4-9.6s-7-6.8-8.2-7.8
			s1.7-4.8,3.5-5c1.7-0.3,9.3,7.5,9.8,8.8c0.6,1.3,7.8-3.8,10.1-4c2.3-0.3,5.2-9.3,6.4-10.8c1.2-1.5,6.4,5.8,12.4,7.5
			c6.1,1.8,9-3.8,9-3.8s-7.8-6.8-9.6-8.3c-1.7-1.5,1.2-3.8,1.2-3.8l6.7,6.3c0,0-0.6-7.8,1.7-9.3c2.3-1.5,5.2,3,13.3,5.8
			c8.1,2.8,4.9-5,4.9-5s-9.6-5-11-7.8c-1.4-2.8,15.6-11.8,15.6-11.8s7.8-1.8,3.8-4.3c-4.1-2.5-25.2,5.8-26.6,5.5
			c-1.4-0.3-2.3,1.5-0.3-3.3c2-4.8-3.5-2-3.5-2l-4.6,3.8c0,0-1.2-3.5-3.2-4.8c-2-1.3-39.4,6.3-39.4,6.3l-6.4-5.5h10.7l6.9-3.3
			c0,0,8.7-0.8,8.1-2s-14.5-6.3-14.5-6.3s5.5-2.3,6.9-3.8c1.4-1.5-1.4-2.5-1.4-2.5l-10.7-0.3l4.9-5.3c0,0-2.6-1.8-3.2-3
			c-0.6-1.3,4.3-2.8,4.1-2c-0.3,0.8,8.1,9.6,8.1,8c0-1.5,5.8-3,5.8-3s0.9,11.8,2.9,11.8c2,0,4.6-9.8,4.6-9.8s8.1,3,11.3,3.3
			s6.4-1.8,6.4-1.8s-6.9-6.3-5.5-5.5c1.4,0.8,5.8-3.3,5.8-3.3l-3.2-4.3c0,0-1.7-5.5-0.6-7.3c1.2-1.8,12.2,9.8,12.2,9.8
			s3.5,0.8,4.3,0c0.9-0.8-6.1-7.5-6.1-7.5s5.5,0.5,5.8,2s12.4,0,12.4,0s-2.9-4.8-0.9-5.3c2-0.5,11.6-1.8,11.6-1.8s0.9-1.5,0-3.5
			c-0.9-2-17.4-2.3-17.4-2.3s-1.4-6-2.3-3s-21.1,3.8-21.1,3.8v-6.5c0,0-16.2,10.6-17.9,7.5c-1.7-3,9.6-6.8,13-9.6
			c3.5-2.8-2.8-3.7-2.8-3.7s-14.8,4.3-14.5,3.7c0.3-0.6-4.3-3.2-4.3-3.2s-12.7,4.5-11.6,2.8c1.2-1.8-4.1-10.3-4.1-10.3
			s-15.9-0.5-17.1-1.8c-1.2-1.3,1.2-8.8,1.2-8.8s3.5-2.8,5.5,0c2,2.8,7.8,5.3,7.8,5.3s0-3,0-4s-6.4-5-6.4-5s-2.3-3.5-2.6-6.3
			c-0.3-2.8,3.2-3,3.2-3l4.3,1.8c0,0,2,7,1.7,8.8c-0.3,1.8,4.3,1.8,4.3,1.8l2.3-8.5c0,0,8.1,2.5,8.4,3.5s6.1,3.1,6.1,3.1l-0.9-3.4
			l11.3,3.3c0,0,5.2,0.8,5.3-2c0.1-2.8-18.9-10.3-20.6-11.1c-1.7-0.8,3.2-2.5,3.2-2.5s11-1.5,11.6-3s-17.7-1.3-17.7-1.3
			s-2.3-3.8-4.1-6.4c-1.7-2.6-9.6-1.4-11.9-2.9s3.5-2.3,3.2-3.5c-0.3-1.3,12.7-0.8,11.3,1c-1.4,1.8,9,7,9,4.9c0-2.2,1.4-2.9,1.4-2.9
			s4.9,2.5,6.7,2.8c1.7,0.3,2.6,0,2.6,0s-6.4-7.3-5.5-7.8c0.9-0.5,10.7,1.3,10.8,0c0.1-1.3-5.9-5.8-9.6-6.5s-2.6-1.3-2.6-1.3l7.8-4
			c0,0,7.2-3.8,3.2-4c-4.1-0.3-10.1,1.8-10.1,1.8s2-3,0-6.3c-2-3.3-4.3-0.3-4.3-0.3l-3.8,6.5c0,0-0.3-2.3-1.4-5.3
			c-1.2-3-4.3-0.8-4.3-0.8s-3.8,5.5-4.3,7.8c-0.6,2.3-4.6,1.8-4.3,0.5c0.3-1.3-3.2-2.3-3.2-2.3s-10.1,8.5-10.1,7.5s-8.4-1.8-8.4-1.8
			s4.3-2.5,4.1-4c-0.3-1.5-9-1-10.7-1.5c-1.7-0.5,0.3-10.6,0.3-10.6l12.7,0.5c2.3-3.5,13,3,14.5,3.3c1.4,0.3,4.6-1.8,2.3-2.3
			s-5.5-7.5-5.5-7.5s11-8.5,8.1-10.1s-10.7,2.8-10.7,2.8c-3.5-4-7.8-1.8-7.8-1.8s-7.5,11.8-8.4,6c-0.9-5.8-8.1-6-8.4-7.3
			c-0.3-1.3,10.4-8,10.7-6s10.4,2.8,10.4,2.8l-1.4-4.3c0,0,10.1,0,13.6,0s2.9-2.5,2.9-2.5s-8.1-3.3-11.3-3.5
			c-3.2-0.3,0.9-2.5,0.9-2.5l9-4.3l1.7-3c0,0-2-2.1-2-4.1s6.9-2.8,8.1-4.2c1.2-1.4-3.8-1.1-3.8-1.1c-2.3-2.5-23.4,7-23.4,7l5.2-7.8
			c0.6-3.3-2.3-2.8-2.3-2.8s-11.9,12.3-13.3,12.8s-4.1-2.5-4.1-2.5s7.2-3.8,8.7-5.7c1.4-1.9-1.4-3.4-1.4-3.4l-11.3,3.4
			c0,0-1.7-1.4-0.6-2.4c1.2-1,9-3.5,10.7-4c1.7-0.5,1.2-2.8,1.2-2.8s-5.2,0.5-8.9,0c-3.7-0.5,0-3.8,0-3.8s11,0.8,13,0
			c2-0.8,0.9-2.8,0.9-2.8l-11.3-5.3c0,0,15.9-4.5,16.5-6.3c0.6-1.8-1.4-5-1.4-5l11.6-3c4.1-4.5,0-5.3,0-5.3l-15.3,5.3v-4l-9.3,1.8
			v-2.8v-5.3l-8.1,7c0,0-5.5,0-6.4,0c-0.9,0,5.2-8.3,7.3-8.8c2.1-0.5-1.8-4.3-1.8-4.3l-12.4-1.3l13.9-9.5c2.3-9.5-8.7-2-8.7-2
			s-10.7,5.3-4.9-1.3c5.8-6.5,2.3-6,2.3-6h-5.5c0,0,11.6-6.3,13.9-10.3c2.3-4-4.3-4.5-4.3-4.5s-12.7,12.3-15.3,12.6
			c-2.6,0.3,0.6-7.3,0.6-7.3s15.6-19.9,15.9-23.4s-4.3-4.8-4.3-4.8s-14.2,20.4-11.9,11.3c2.3-9-5.8-42.7-5.8-42.7
			c-7.1-1.3-6.8,46.2-6.8,46.2s-4.8-4.5-12.9-7c-8.1-2.5-6.4,3.4-6.4,3.4s20.8,16.3,22,17.1s-0.2,8.5-2.1,8.5
			c-1.9,0-2.3-3.5-2.3-3.5c-7.3-4.9-8.3,3.9-8.3,3.9l3.9,4.7l-13.7-3c-9.5,2.2-1.5,5.2-1.5,5.2s8.3,2.2,13.3,3
			c5,0.8,3.9,4.7,3.9,4.7c-10.2-5.5-11.2-0.3-13.5,1.3c-2.3,1.7,0.4,11.4,0.4,11.4c-15-4-14.1,1.3-14.1,1.3s21.6,16.8,24.5,19.3
			s2.1,6.2-0.8,3.9c-2.9-2.3-8.5-2.7-8.5-2.7l1.4,7c0,0-5-2.5-12.2-5c-7.1-2.5-4.8,2.5-4.8,2.5s20.6,10.1,24.3,13.2
			c3.7,3.2,0.4,3.7,0.4,3.7s-8.1-6.2-13.9-6.4c-5.8-0.2-9.8,4-9.8,4l-2.1-5.9l-3.7-3c0,0-6.4,1.7-11-3.5c-4.6-5.2-5.2,1.2-5.2,1.2
			s6.4,6.4,7.7,8.2c1.4,1.8-2.5,4.2-4.2,4.9c-1.7,0.7-3.1-3.4-7.9-7.5c-4.8-4.2-7.3,2-5.8,2.2c1.5,0.2,8.5,7.7,8.5,7.7
			s-2.3,1-9.3,1.3c-6.9,0.3-5,4.9-5,4.9s10.2-0.7,7.7-0.2c-2.5,0.5-3.5,4.7-3.5,4.7s10.2,0.8,17.2,0.5s11.4,9,11.4,9s-5,2-4.8,4.7
			c0.2,2.7,6.6,8.5,6.6,8.5c-12.9,5.5-8.5,10.7-6.4,12.4c2.1,1.7,0.6,6.7,0.6,6.7s-1.4-0.3-10.6-5c-1.9-0.9-3.2-1.5-4.2-1.8
			c-0.1,2.2-0.4,4.5-0.7,6.5c2.2,2.1,2.3,5.4,2.3,5.4s-7.3,0.6-7.3-0.2c0-0.5,0-2.1,0.6-5.2c-0.9-0.8,0.1-2.7,0-3.4
			c-0.2-1.9-0.8-5.7,3.3-4.5c0-0.5,1.9,0.4,1.9-0.2c-0.2-6-12.3-6.1-12.3-6.1s6.9,12.5,4.8,12.5c-2.1,0-2.5-4.5-9.6-6.5
			c-7.1-2-4.8,1.3-4.8,1.3l8.7,11.1c0,0-8.9,2-11.4,4.7c-2.5,2.7,2.7,3.9,2.7,3.9l6-3.2c0,0,6.2,0,6.2,1s-8.7,2-8.7,2l2.5,2.5
			c0,3.2,20.6,3.7,20.6,3.7s-4.6,1.7-7.3,3.5c-2.7,1.8,0.2,4.9,0.2,4.9s3.5-1.7,8.5-2.3c5-0.7,6.6,3.2,6.6,3.2s-3.9,1.3-6.9,1.3
			s-1.4,3.4-1.4,3.4s7.9,0.3,7.3,2.5c-0.6,2.2-6.9,1.2-8.3-0.3s-7.1,0.2-4.4,1.5c2.7,1.3,5,7.5,5,7.5s-16.8-13.6-19.9-12.6
			c-3.1,1,2.7,7.9,2.7,7.9s-9.6-0.8-16.8,2c-7.1,2.8-1.7,6.7-1.4,5.7c0.4-1,15.6-2.5,14.3-0.7c-1.4,1.8,3.3,4.2,3.3,4.2
			s3.1-0.8,5.2-2.2c2.1-1.3,12.7,0,11.6,0.2c-0.9,0.1-8.9,4.1-11.9,5.4c4.5-0.6,20-0.4,20-0.4s-4.6,3.5-7.1,7.5
			c-2.5,4,2.7,3.7,2.7,3.7s5.2-5.7,7.5-4.4c2.3,1.3-0.2,5.9-2.3,6.4c-2.1,0.5-9.1,7.7-9.1,7.7s8.1-2.5,12.7,0.7
			c4.6,3.2-2.5,5.9-3.1,5.4c-0.6-0.5-8.7-3.9-10-2.5c-1.4,1.3,5.8,4,2.7,3.4c-3.1-0.7-11.4-2.8-11.4-1.5c0,1.3,4.8,5.2,4.8,5.2
			s-3.1,2.3-4.2,0.7c-1.2-1.7-20.5-3-20.8-1.7c-0.3,0.9,5.8,3.2,9.8,4.6c2.2,0.5,3.4,1.1,3.4,1.1s-1.4-0.5-3.4-1.1
			c-3.2-0.8-8.5-1.3-15.6,0.5c-2.4,0.6-1.3-0.1-2.4,0.6c0.9,0.9-1.3,3.7,0.3,5.1c0.8,0.8,2.7,1.9,3.1,1.5c1.2-1,12.5-3.2,10.6-1.8
			c-1.9,1.3,3.1,4.4,3.1,4.4s12.3-5,9.6-3.4c-2.7,1.7,1.2,8,2.7,8.4s9.6-3.4,9.6-3.4s1.9,5,1.5,9.4c-0.4,4.4-5.4,2.7-8.9,2.2
			c-3.5-0.5-15.8-12.3-17-10.3s1.9,8.7,1.9,8.7s-3.1-3-11.6-10.1s-4.2,2.3-4.2,2.3s4.2,5,0.8,6s-6.2-5-7.7-7.7
			c-0.8-1.3-1.6-2.1-0.2-4.4c-1-1,1.5-0.7,3.8-2.2c-0.3-0.3-1-4.1-1.7-4.2c-5.8-1-5.6,1-5.6,1l-1.4-2.3l-4.6,8.4c0,0-1.5-3-1.5-6
			s-5.4-2-5.4-2s-0.8,12.1-0.8,10.4s-12.7-3-15,0.7c-2.3,3.7,15.4,2.7,7.7,5.7s-7.3,9.4-7.3,9.4l7.3-3.5c0,0-0.8,7.5,2.7,6.5
			s19.7,4.7,19.7,4.7s-3.9,3.7-3.9,6c0,2.3,7.3,1,9.3-1c1.9-2,16.2-1,13.1-0.3c-3.1,0.7-4.2,7-4.2,7s6.2-2.7,5.4-1.7
			c-0.8,1,4.6,2.3,7.7,1.3c3.1-1,6.6,4.4,6.6,4.4l-8.9,1l6.6,12.1c0,0-10,0-15.4-1.3c-5.4-1.3-1.9-8.4-4.6-6.7
			c-2.7,1.7-3.1,14.1-5.8,12.1c-1.9-1.4-13.1-2.8-18-3.6c2.7,1.6,3.3,6.6,3.3,6.6s-18.5-9.4-24.7-13.4c-6.2-4-9.3-0.3-9.3-0.3
			s8.1,7.3,11.2,9.3c0.7,0.1,1.1,0.3,1.1,0.4c0,0.3-0.4,0.1-1.1-0.4c-6.1-1.1-34.7-1.6-34.7-1.6s18.1,7,12.3,5.4
			c-5.8-1.7-9.6,10.1-6.6,7.7c3.1-2.3,23.2,3,23.2,3s-6.9,13.1-4.2,10.1c2.7-3,26.6-1.3,21.2,1.7c-5.4,3,2.3,10.7,2.7,6.7
			c0.4-4,18.1-6,16.2-4c-1.9,2-3.9,10.1-1.9,12.4c0.7,0.9,2.1-0.1,3.5-1.6c0-0.1,0-0.1,0-0.1l4.6-6.4c0,0-2.4,4-4.6,6.5
			c-0.1,1-1,9.1,1.2,11.6c2.3,2.7,6.9-3.4,7.3-8.7c0.4-5.4,6.2-15.4,6.2-15.4s5.4-1,3.5,2.3s-0.4,19.4,2.7,17.8
			c2.3-1.2,3.7-5.8,4.3-8.1c0.2-0.8,0.3-1.3,0.3-1.3s-0.1,0.5-0.3,1.3c-0.6,2.5-1.6,8.1-0.1,10.4c0.9,1.4,2.4,0.9,3.7-0.8
			c7.6,0,4.5-2.8,7.9-4.2c0.1,0-6-1.4-5.9-1.5c0.3-1.7,0.3-3.7,0.1-5.9c0,0,1.5-3,4.6-2.3c3.1,0.7,4.2,4.4,4.2,4.4s5.6,1.6,0,3.9
			c-0.4,2.5-1.6,7.3-2.5,8.5c0.8,1.2-6.8-0.7-6.8-0.7s-6.2,5-7.7,3c-1.5-2-26.6,0.3-30.1-0.7s-2.7-17.8-4.2-18.1
			c-1.5-0.3-2.3,12.7-2.3,12.7s-4.6-5.7-10.4-9.4s-7.3,5.4-7.3,5.4s-9.4-3.6-13.8-5.5c1.4,2.5-0.6,8-5.5,9.6
			c-6.2,2-12.3,1.3-12.3-2.7s-13.9,1.3-20.1,2c-6.2,0.7,0.8,5.4,10.8,7.4s-3.9,9.4-3.9,9.4s-13.9,7.4-11.6,12.1
			c2.3,4.7,27-14.1,18.5,0.7c-8.5,14.7,3.9,12.7,8.5,5.4c4.6-7.4,16.2-5.4,16.2-5.4l-4.6,11.4c0,0,13.1-2.7,16.2-5.4
			c3.1-2.7,26.2,0,26.2,0l-19.3,10.1c0,0-0.8,17.4,6.2,9.4s13.9-11.4,19.3-5.4c0,0-6.9,6.7-8.5,12.1c-1.5,5.4,10,0.7,10,0.7
			s5.4-6,14.7-7.4l-3.1,8l-8.5,9.4c0,0-6.2-2.7-9.3-3.4c-3.1-0.7-14.7,0.7-14.7,0.7s-5.4,4.7,2.3,10.1l-17,4l-5.4,8.7
			c0,0,16.2-1.3,21.6-2.7c5.4-1.3,9.3,3.4,12.3,10.1S1517,1378.4,1517,1378.4l317.6-12.7L1830.7,1356z M1669.8,1129.8
			c0,0-5.4,2-5.4,0s5.4-8.7,5.4-8.7V1129.8z M1697.8,923.5c0.3,1.5-3,1-3,1l-4.8-5c0,0-2.3-5.9,1.7-2.3
			C1691.7,917.3,1697.5,922,1697.8,923.5z M1702.4,951.4h-13.1l8.5-4.3C1697.8,947.2,1704.4,947.9,1702.4,951.4z M1707,911.7
			c-1.2,1-4.6-2.7-4.6-2.7l4.6-3.6C1707,905.4,1708.2,910.7,1707,911.7z M1718.9,859.4c-0.3,1-0.3,4-2.2,4.5c-1.9,0.5-2.2-8-2.2-8
			S1719.2,858.4,1718.9,859.4z M1722.3,1026.5c-2.7-0.7-2.4,5-2.4,5s-1.5-3.7-2.3-5c-0.8-1.3,4.6-5,4.6-5S1725,1027.2,1722.3,1026.5
			z M1758.2,992.8c0,0-8.2-4.1-8.7-5.8c-0.5-1.7,1.8-1.2,1.8-1.2s4.9,1.6,7.8,3.4C1762,991.2,1758.2,992.8,1758.2,992.8z
			 M1770.1,980.4c0,0-5.8,5.8-6.7,5.5c-0.9-0.3,3.5-7.5,3.5-7.5L1770.1,980.4z M1772,1044.6l-8.7-5c0,0,11.8-2,13.3,0
			C1778.2,1041.6,1772,1044.6,1772,1044.6z M1786.8,1047.7c-1.3,0.5-1.7-1.2-1.7-1.2s0.1,0.5,1.7-0.5c1.5-1,0-7.3,0-7.3
			s-1.1-0.8-2.2-1.4c-1-0.7-3.3,0.1-4.5,0c-1.2,0-0.7-1.7-0.5-2.4s9.4-0.2,9.4-0.2l1.2,8.4
			C1790.1,1043.2,1788.1,1047.2,1786.8,1047.7z M1801.4,1121c0,0,9.6,7.7,12,9.7c2.3,2-1.9,7.7-1.9,7.7l-10-7.7c3.5,1,4.8-1,4.8-1
			s-3.2-4.7-6.7-5.7S1801.4,1121,1801.4,1121z"/>
		<path class="st26" d="M1625.7,1008.4c0.1-0.1,0.5-0.2,1.2-0.3C1626,1008.4,1625.5,1008.6,1625.7,1008.4z"/>
		<path class="st26" d="M1545.6,1146.1c0.8,0.1,1.3,0.6,1.6,1.2C1545.4,1146.5,1544.4,1145.9,1545.6,1146.1z"/>
		<path class="st26" d="M1882.8,1331.1c0.6,0.6,1,1.2,0.9,2c-0.3-0.6-0.5-1-0.5-1S1883,1331.6,1882.8,1331.1z"/>
	</g>
</g>
<g id="Layer_9">
	<g class="st27">
		<g>
			<path class="st28" d="M963,211"/>
		</g>
	</g>
	<g class="st27">
		<g>
			<path class="st28" d="M303,327"/>
		</g>
	</g>
	<g class="st27">
		<g>
			<path class="st29" d="M1132.4,237.7c0.9,0,3.1-1.4,1.2-1.4C1132.7,236.3,1130.5,237.7,1132.4,237.7L1132.4,237.7z"/>
		</g>
	</g>
	<g class="st27">
		<g>
			<path class="st29" d="M1325,191c7.7,0,7.7-12,0-12C1317.3,179,1317.3,191,1325,191L1325,191z"/>
		</g>
	</g>
	<g class="st27">
		<g>
			<path class="st29" d="M225,353c7.7,0,7.7-12,0-12C217.3,341,217.3,353,225,353L225,353z"/>
		</g>
	</g>
	<g class="st27">
		<g>
			<path class="st29" d="M487,110c3.9,0,3.9-6,0-6C483.1,104,483.1,110,487,110L487,110z"/>
		</g>
	</g>
	<g class="st27">
		<g>
			<path class="st29" d="M1257,500c3.9,0,3.9-6,0-6C1253.1,494,1253.1,500,1257,500L1257,500z"/>
		</g>
	</g>
	<g class="st27">
		<g>
			<path class="st29" d="M801,159.5c5.8,0,5.8-9,0-9C795.2,150.5,795.2,159.5,801,159.5L801,159.5z"/>
		</g>
	</g>
	<g class="st27">
		<g>
			<path class="st29" d="M1605,98.5c1.9,0,1.9-3,0-3C1603.1,95.5,1603.1,98.5,1605,98.5L1605,98.5z"/>
		</g>
	</g>
	<g class="st27">
		<g>
			<path class="st29" d="M305,98.5c1.9,0,1.9-3,0-3C303.1,95.5,303.1,98.5,305,98.5L305,98.5z"/>
		</g>
	</g>
	<g class="st27">
		<g>
			<path class="st29" d="M445,168.5c1.9,0,1.9-3,0-3C443.1,165.5,443.1,168.5,445,168.5L445,168.5z"/>
		</g>
	</g>
	<g class="st27">
		<g>
			<path class="st29" d="M1123,74.5c1.9,0,1.9-3,0-3C1121.1,71.5,1121.1,74.5,1123,74.5L1123,74.5z"/>
		</g>
	</g>
	<g class="st27">
		<g>
			<path class="st29" d="M1657,496.5c1.9,0,1.9-3,0-3C1655.1,493.5,1655.1,496.5,1657,496.5L1657,496.5z"/>
		</g>
	</g>
	<g class="st27">
		<g>
			<path class="st29" d="M1781,240.5c1.9,0,1.9-3,0-3C1779.1,237.5,1779.1,240.5,1781,240.5L1781,240.5z"/>
		</g>
	</g>
	<g class="st27">
		<g>
			<path class="st29" d="M1817,40.5c1.9,0,1.9-3,0-3C1815.1,37.5,1815.1,40.5,1817,40.5L1817,40.5z"/>
		</g>
	</g>
	<g class="st27">
		<g>
			<path class="st29" d="M1751,128.5c1.9,0,1.9-3,0-3C1749.1,125.5,1749.1,128.5,1751,128.5L1751,128.5z"/>
		</g>
	</g>
	<g class="st27">
		<g>
			<path class="st29" d="M505,354c3.9,0,3.9-6,0-6C501.1,348,501.1,354,505,354L505,354z"/>
		</g>
	</g>
	<g class="st27">
		<g>
			<path class="st29" d="M93,94c3.9,0,3.9-6,0-6C89.1,88,89.1,94,93,94L93,94z"/>
		</g>
	</g>
	<g class="st27">
		<g>
			<path class="st29" d="M1113,148c3.9,0,3.9-6,0-6C1109.1,142,1109.1,148,1113,148L1113,148z"/>
		</g>
	</g>
	<g class="st27">
		<g>
			<path class="st29" d="M1369,70c3.9,0,3.9-6,0-6C1365.1,64,1365.1,70,1369,70L1369,70z"/>
		</g>
	</g>
	<g class="st27">
		<g>
			<path class="st29" d="M1685,250c3.9,0,3.9-6,0-6C1681.1,244,1681.1,250,1685,250L1685,250z"/>
		</g>
	</g>
	<g class="st27">
		<g>
			<path class="st29" d="M743,64c3.9,0,3.9-6,0-6C739.1,58,739.1,64,743,64L743,64z"/>
		</g>
	</g>
	<g class="st27">
		<g>
			<path class="st29" d="M695,309.5c5.8,0,5.8-9,0-9C689.2,300.5,689.2,309.5,695,309.5L695,309.5z"/>
		</g>
	</g>
	<g class="st27">
		<g>
			<path class="st29" d="M955,91.5c5.8,0,5.8-9,0-9C949.2,82.5,949.2,91.5,955,91.5L955,91.5z"/>
		</g>
	</g>
	<g class="st30">
		<g>
			<path class="st29" d="M1044.5,211.9c1.2,0,3-1.8,1.1-1.8C1044.3,210.1,1042.5,211.9,1044.5,211.9L1044.5,211.9z"/>
		</g>
	</g>
	<g class="st30">
		<g>
			<path class="st29" d="M1438.1,141.6c0.6,0,3.3-1.2,1.9-1.2C1439.3,140.4,1436.6,141.6,1438.1,141.6L1438.1,141.6z"/>
		</g>
	</g>
	<g class="st30">
		<g>
			<path class="st29" d="M1556.5,295.9c1.2,0,3-1.9,1.1-1.9C1556.3,294.1,1554.5,295.9,1556.5,295.9L1556.5,295.9z"/>
		</g>
	</g>
	<g class="st30">
		<g>
			<path class="st29" d="M730.9,142.1c1.7,0,2.2-2.2,0.2-2.2C729.5,139.9,728.9,142.1,730.9,142.1L730.9,142.1z"/>
		</g>
	</g>
	<g class="st30">
		<g>
			<path class="st29" d="M854.4,73.6c0.8,0,3.1-1.3,1.2-1.3C854.8,72.4,852.5,73.6,854.4,73.6L854.4,73.6z"/>
		</g>
	</g>
	<g class="st30">
		<g>
			<path class="st29" d="M882.5,159.9c1.2,0,3-1.9,1.1-1.9C882.3,158.1,880.5,159.9,882.5,159.9L882.5,159.9z"/>
		</g>
	</g>
	<g class="st30">
		<g>
			<path class="st29" d="M474.1,147.6c0.6,0,3.3-1.2,1.9-1.2C475.3,146.4,472.6,147.6,474.1,147.6L474.1,147.6z"/>
		</g>
	</g>
	<g class="st30">
		<g>
			<path class="st29" d="M376.4,99.7c1,0,3.1-1.4,1.2-1.4C376.6,98.3,374.5,99.7,376.4,99.7L376.4,99.7z"/>
		</g>
	</g>
	<g class="st30">
		<g>
			<path class="st29" d="M346.1,225.6c0.6,0,3.3-1.2,1.9-1.2C347.3,224.4,344.7,225.6,346.1,225.6L346.1,225.6z"/>
		</g>
	</g>
	<g class="st30">
		<g>
			<path class="st29" d="M164.1,153.6c0.6,0,3.3-1.1,1.9-1.1C165.4,152.4,162.7,153.6,164.1,153.6L164.1,153.6z"/>
		</g>
	</g>
	<g class="st30">
		<g>
			<path class="st29" d="M68.5,185.9c1.2,0,3-1.8,1.1-1.8C68.3,184.1,66.5,185.9,68.5,185.9L68.5,185.9z"/>
		</g>
	</g>
	<g class="st30">
		<g>
			<path class="st29" d="M182.9,238.1c1.7,0,2.2-2.2,0.2-2.2C181.5,235.9,180.9,238.1,182.9,238.1L182.9,238.1z"/>
		</g>
	</g>
	<g class="st30">
		<g>
			<path class="st29" d="M1558.9,84.1c1.7,0,2.2-2.1,0.3-2.1C1557.5,81.9,1556.9,84.1,1558.9,84.1L1558.9,84.1z"/>
		</g>
	</g>
	<g class="st30">
		<g>
			<path class="st29" d="M1566.4,203.7c0.9,0,3.1-1.4,1.2-1.4C1566.7,202.3,1564.5,203.7,1566.4,203.7L1566.4,203.7z"/>
		</g>
	</g>
	<g class="st30">
		<g>
			<path class="st29" d="M1432.4,105.8c1,0,3.1-1.5,1.2-1.5C1432.6,104.2,1430.5,105.8,1432.4,105.8L1432.4,105.8z"/>
		</g>
	</g>
	<g class="st30">
		<g>
			<path class="st29" d="M1486.9,254c1.6,0,2.2-2.1,0.3-2.1C1485.5,252,1484.9,254,1486.9,254L1486.9,254z"/>
		</g>
	</g>
	<g class="st30">
		<g>
			<path class="st29" d="M1586.5,164c1.3,0,3-2,1-2C1586.2,162,1584.5,164,1586.5,164L1586.5,164z"/>
		</g>
	</g>
	<g class="st30">
		<g>
			<path class="st29" d="M1208.1,141.6c0.6,0,3.3-1.2,1.9-1.2C1209.3,140.4,1206.7,141.6,1208.1,141.6L1208.1,141.6z"/>
		</g>
	</g>
	<g class="st30">
		<g>
			<path class="st29" d="M1310.1,265.6c0.7,0,3.3-1.3,1.9-1.3C1311.3,264.4,1308.6,265.6,1310.1,265.6L1310.1,265.6z"/>
		</g>
	</g>
	<g class="st30">
		<g>
			<path class="st29" d="M865.1,248.1c1.3,0,3-2,1-2C864.8,246.1,863.1,248.1,865.1,248.1L865.1,248.1z"/>
		</g>
	</g>
	<g class="st30">
		<g>
			<path class="st29" d="M943,328.9c1.1,0,3.1-1.6,1.1-1.6C943.1,327.3,941.1,328.9,943,328.9L943,328.9z"/>
		</g>
	</g>
	<g class="st30">
		<g>
			<path class="st29" d="M511.9,132.9c1.7,0,6.3-2.6,2.4-2.6C512.6,130.3,508,132.9,511.9,132.9L511.9,132.9z"/>
		</g>
	</g>
	<g class="st30">
		<g>
			<path class="st29" d="M616.2,185.2c1.2,0,6.5-2.2,3.8-2.2C618.8,183,613.5,185.2,616.2,185.2L616.2,185.2z"/>
		</g>
	</g>
	<g class="st30">
		<g>
			<path class="st29" d="M601.4,84.4c3.4,0,4.4-4.5,0.4-4.5C598.4,79.8,597.5,84.4,601.4,84.4L601.4,84.4z"/>
		</g>
	</g>
	<g class="st30">
		<g>
			<path class="st29" d="M888.4,232c1.8,0,6.3-2.7,2.4-2.7C889,229.2,884.5,232,888.4,232L888.4,232z"/>
		</g>
	</g>
	<g class="st30">
		<g>
			<path class="st29" d="M1706,54c2.4,0,6.1-3.7,2.1-3.7C1705.7,50.3,1702.1,54,1706,54L1706,54z"/>
		</g>
	</g>
	<g class="st30">
		<g>
			<path class="st29" d="M1809.3,135.9c1.8,0,6.3-2.6,2.4-2.6C1810,133.3,1805.5,135.9,1809.3,135.9L1809.3,135.9z"/>
		</g>
	</g>
	<g class="st30">
		<g>
			<path class="st29" d="M1696.9,310.3c2.3,0,6.1-3.4,2.2-3.4C1696.9,306.9,1693,310.3,1696.9,310.3L1696.9,310.3z"/>
		</g>
	</g>
	<g class="st30">
		<g>
			<path class="st29" d="M1685.7,440.3c1.3,0,6.6-2.4,3.7-2.4C1688.1,437.9,1682.8,440.3,1685.7,440.3L1685.7,440.3z"/>
		</g>
	</g>
	<g class="st30">
		<g>
			<path class="st29" d="M1463,418.4c2.4,0,6.1-3.6,2.2-3.6C1462.8,414.8,1459.1,418.4,1463,418.4L1463,418.4z"/>
		</g>
	</g>
	<g class="st30">
		<g>
			<path class="st29" d="M1301.7,248.3c1.2,0,6.6-2.4,3.8-2.4C1304.2,245.9,1298.9,248.3,1301.7,248.3L1301.7,248.3z"/>
		</g>
	</g>
	<g class="st30">
		<g>
			<path class="st29" d="M1136.7,290.3c1.2,0,6.6-2.4,3.8-2.4C1139.2,287.9,1133.9,290.3,1136.7,290.3L1136.7,290.3z"/>
		</g>
	</g>
	<g class="st30">
		<g>
			<path class="st29" d="M1134.4,350.6c2,0,6.2-2.9,2.3-2.9C1134.8,347.6,1130.5,350.6,1134.4,350.6L1134.4,350.6z"/>
		</g>
	</g>
	<g class="st30">
		<g>
			<path class="st29" d="M994.3,396.2c3.3,0,4.5-4.2,0.5-4.2C991.6,392,990.4,396.2,994.3,396.2L994.3,396.2z"/>
		</g>
	</g>
	<g class="st30">
		<g>
			<path class="st29" d="M891.4,292c1.9,0,6.2-2.8,2.4-2.8C891.9,289.2,887.5,292,891.4,292L891.4,292z"/>
		</g>
	</g>
	<g class="st30">
		<g>
			<path class="st29" d="M866.8,120.2c3.3,0,4.5-4.1,0.5-4.1C864.1,116.1,862.9,120.2,866.8,120.2L866.8,120.2z"/>
		</g>
	</g>
	<g class="st30">
		<g>
			<path class="st29" d="M561.6,264c2.5,0,6-3.8,2.1-3.8C561.1,260.2,557.7,264,561.6,264L561.6,264z"/>
		</g>
	</g>
	<g class="st30">
		<g>
			<path class="st29" d="M592.4,346.8c3.4,0,4.4-4.5,0.5-4.5C589.5,342.4,588.5,346.8,592.4,346.8L592.4,346.8z"/>
		</g>
	</g>
	<g class="st30">
		<g>
			<path class="st29" d="M433.2,246.7c1.2,0,6.5-2.2,3.8-2.2C435.9,244.5,430.5,246.7,433.2,246.7L433.2,246.7z"/>
		</g>
	</g>
	<g class="st30">
		<g>
			<path class="st29" d="M301.4,220.9c3.4,0,4.4-4.5,0.4-4.5C298.5,216.4,297.5,220.9,301.4,220.9L301.4,220.9z"/>
		</g>
	</g>
	<g class="st30">
		<g>
			<path class="st29" d="M254,148.3c2.2,0,6.1-3.3,2.3-3.3C254.1,145,250.1,148.3,254,148.3L254,148.3z"/>
		</g>
	</g>
	<g class="st30">
		<g>
			<path class="st29" d="M273.6,319.5c2.5,0,6-3.8,2.1-3.8C273.2,315.7,269.7,319.5,273.6,319.5L273.6,319.5z"/>
		</g>
	</g>
	<g class="st30">
		<g>
			<path class="st29" d="M152.1,217.5c2.4,0,6.1-3.7,2.1-3.7C151.8,213.8,148.2,217.5,152.1,217.5L152.1,217.5z"/>
		</g>
	</g>
	<g class="st30">
		<g>
			<path class="st29" d="M454.6,62.6c3.9,0,3.9-6,0-6C450.8,56.6,450.7,62.6,454.6,62.6L454.6,62.6z"/>
		</g>
	</g>
	<g class="st30">
		<g>
			<path class="st29" d="M1524.1,65.6c3.9,0,3.9-6,0-6C1520.2,59.6,1520.2,65.6,1524.1,65.6L1524.1,65.6z"/>
		</g>
	</g>
	<g class="st30">
		<g>
			<path class="st29" d="M641.8,297.8c3.9,0,3.9-6,0-6C637.9,291.8,637.9,297.8,641.8,297.8L641.8,297.8z"/>
		</g>
	</g>
	<g class="st30">
		<g>
			<path class="st29" d="M806.8,291.8c3.9,0,3.9-6,0-6C802.9,285.8,802.9,291.8,806.8,291.8L806.8,291.8z"/>
		</g>
	</g>
	<g class="st30">
		<g>
			<path class="st29" d="M764.8,462.8c3.9,0,3.9-6,0-6C760.9,456.8,760.9,462.8,764.8,462.8L764.8,462.8z"/>
		</g>
	</g>
	<g class="st30">
		<g>
			<path class="st29" d="M1418.9,249.8c3.9,0,3.9-6,0-6C1415,243.8,1415,249.8,1418.9,249.8L1418.9,249.8z"/>
		</g>
	</g>
	<g class="st30">
		<g>
			<path class="st29" d="M1418.9,339.8c3.9,0,3.9-6,0-6C1415,333.8,1415,339.8,1418.9,339.8L1418.9,339.8z"/>
		</g>
	</g>
	<g class="st30">
		<g>
			<path class="st29" d="M227.7,411.8c3.9,0,3.9-6,0-6C223.9,405.8,223.9,411.8,227.7,411.8L227.7,411.8z"/>
		</g>
	</g>
	<g class="st30">
		<g>
			<path class="st29" d="M116.7,270.8c3.9,0,3.9-6,0-6C112.9,264.8,112.9,270.8,116.7,270.8L116.7,270.8z"/>
		</g>
	</g>
	<g class="st30">
		<g>
			<path class="st29" d="M1357,612c3.9,0,3.9-6,0-6C1353.1,606,1353.1,612,1357,612L1357,612z"/>
		</g>
	</g>
	<g class="st30">
		<g>
			<path class="st29" d="M1543,538c3.9,0,3.9-6,0-6C1539.1,532,1539.1,538,1543,538L1543,538z"/>
		</g>
	</g>
	<g class="st30">
		<g>
			<path class="st29" d="M809,504c3.9,0,3.9-6,0-6C805.1,498,805.1,504,809,504L809,504z"/>
		</g>
	</g>
	<g class="st30">
		<g>
			<path class="st29" d="M655,392c3.9,0,3.9-6,0-6C651.1,386,651.1,392,655,392L655,392z"/>
		</g>
	</g>
	<g class="st30">
		<g>
			<path class="st29" d="M961,342c3.9,0,3.9-6,0-6C957.1,336,957.1,342,961,342L961,342z"/>
		</g>
	</g>
	<g class="st30">
		<g>
			<path class="st29" d="M629,232c3.9,0,3.9-6,0-6C625.1,226,625.1,232,629,232L629,232z"/>
		</g>
	</g>
	<g class="st30">
		<g>
			<path class="st29" d="M249,480c3.9,0,3.9-6,0-6C245.1,474,245.1,480,249,480L249,480z"/>
		</g>
	</g>
	<g class="st30">
		<g>
			<path class="st29" d="M179,436c3.9,0,3.9-6,0-6C175.1,430,175.1,436,179,436L179,436z"/>
		</g>
	</g>
	<g class="st30">
		<g>
			<path class="st29" d="M55,284c3.9,0,3.9-6,0-6C51.1,278,51.1,284,55,284L55,284z"/>
		</g>
	</g>
	<g class="st30">
		<g>
			<path class="st29" d="M349,380c3.9,0,3.9-6,0-6C345.1,374,345.1,380,349,380L349,380z"/>
		</g>
	</g>
	<g class="st30">
		<g>
			<path class="st29" d="M25,478c3.9,0,3.9-6,0-6C21.1,472,21.1,478,25,478L25,478z"/>
		</g>
	</g>
	<g class="st30">
		<g>
			<path class="st29" d="M1831,200c3.9,0,3.9-6,0-6C1827.1,194,1827.1,200,1831,200L1831,200z"/>
		</g>
	</g>
	<g class="st30">
		<g>
			<path class="st29" d="M1871,370c3.9,0,3.9-6,0-6C1867.1,364,1867.1,370,1871,370L1871,370z"/>
		</g>
	</g>
	<g class="st30">
		<g>
			<path class="st29" d="M331,114.5c1.9,0,1.9-3,0-3C329.1,111.5,329.1,114.5,331,114.5L331,114.5z"/>
		</g>
	</g>
	<g class="st30">
		<g>
			<path class="st29" d="M429,146.5c1.9,0,1.9-3,0-3C427.1,143.5,427.1,146.5,429,146.5L429,146.5z"/>
		</g>
	</g>
	<g class="st30">
		<g>
			<path class="st29" d="M607,144.5c1.9,0,1.9-3,0-3C605.1,141.5,605.1,144.5,607,144.5L607,144.5z"/>
		</g>
	</g>
	<g class="st30">
		<g>
			<path class="st29" d="M741,214.5c1.9,0,1.9-3,0-3C739.1,211.5,739.1,214.5,741,214.5L741,214.5z"/>
		</g>
	</g>
	<g class="st30">
		<g>
			<path class="st29" d="M967,192.5c1.9,0,1.9-3,0-3C965.1,189.5,965.1,192.5,967,192.5L967,192.5z"/>
		</g>
	</g>
	<g class="st30">
		<g>
			<path class="st29" d="M1093,192.5c1.9,0,1.9-3,0-3C1091.1,189.5,1091.1,192.5,1093,192.5L1093,192.5z"/>
		</g>
	</g>
	<g class="st30">
		<g>
			<path class="st29" d="M1233,180.5c1.9,0,1.9-3,0-3C1231.1,177.5,1231.1,180.5,1233,180.5L1233,180.5z"/>
		</g>
	</g>
	<g class="st30">
		<g>
			<path class="st29" d="M1313,52.5c1.9,0,1.9-3,0-3C1311.1,49.5,1311.1,52.5,1313,52.5L1313,52.5z"/>
		</g>
	</g>
	<g class="st30">
		<g>
			<path class="st29" d="M1489,184.5c1.9,0,1.9-3,0-3C1487.1,181.5,1487.1,184.5,1489,184.5L1489,184.5z"/>
		</g>
	</g>
	<g class="st30">
		<g>
			<path class="st29" d="M1593,166.5c1.9,0,1.9-3,0-3C1591.1,163.5,1591.1,166.5,1593,166.5L1593,166.5z"/>
		</g>
	</g>
	<g class="st30">
		<g>
			<path class="st29" d="M1659,314.5c1.9,0,1.9-3,0-3C1657.1,311.5,1657.1,314.5,1659,314.5L1659,314.5z"/>
		</g>
	</g>
	<g class="st30">
		<g>
			<path class="st29" d="M1659,212.5c1.9,0,1.9-3,0-3C1657.1,209.5,1657.1,212.5,1659,212.5L1659,212.5z"/>
		</g>
	</g>
	<g class="st30">
		<g>
			<path class="st29" d="M1795,340.5c1.9,0,1.9-3,0-3C1793.1,337.5,1793.1,340.5,1795,340.5L1795,340.5z"/>
		</g>
	</g>
	<g class="st30">
		<g>
			<path class="st29" d="M1047,302.5c1.9,0,1.9-3,0-3C1045.1,299.5,1045.1,302.5,1047,302.5L1047,302.5z"/>
		</g>
	</g>
	<g class="st30">
		<g>
			<path class="st29" d="M901,244.5c1.9,0,1.9-3,0-3C899.1,241.5,899.1,244.5,901,244.5L901,244.5z"/>
		</g>
	</g>
	<g class="st30">
		<g>
			<path class="st29" d="M539,182.5c1.9,0,1.9-3,0-3C537.1,179.5,537.1,182.5,539,182.5L539,182.5z"/>
		</g>
	</g>
	<g class="st30">
		<g>
			<path class="st29" d="M441,306.5c1.9,0,1.9-3,0-3C439.1,303.5,439.1,306.5,441,306.5L441,306.5z"/>
		</g>
	</g>
	<g class="st30">
		<g>
			<path class="st29" d="M271,210.5c1.9,0,1.9-3,0-3C269.1,207.5,269.1,210.5,271,210.5L271,210.5z"/>
		</g>
	</g>
	<g class="st30">
		<g>
			<path class="st29" d="M147,40.5c1.9,0,1.9-3,0-3C145.1,37.5,145.1,40.5,147,40.5L147,40.5z"/>
		</g>
	</g>
	<g class="st30">
		<g>
			<path class="st29" d="M1271,240.5c1.9,0,1.9-3,0-3C1269.1,237.5,1269.1,240.5,1271,240.5L1271,240.5z"/>
		</g>
	</g>
	<g class="st30">
		<g>
			<path class="st29" d="M1201,104.5c1.9,0,1.9-3,0-3C1199.1,101.5,1199.1,104.5,1201,104.5L1201,104.5z"/>
		</g>
	</g>
	<g class="st30">
		<g>
			<path class="st29" d="M1375,152.5c1.9,0,1.9-3,0-3C1373.1,149.5,1373.1,152.5,1375,152.5L1375,152.5z"/>
		</g>
	</g>
	<g class="st30">
		<g>
			<path class="st29" d="M1573,150.5c1.9,0,1.9-3,0-3C1571.1,147.5,1571.1,150.5,1573,150.5L1573,150.5z"/>
		</g>
	</g>
	<g class="st30">
		<g>
			<path class="st29" d="M1799,142.5c1.9,0,1.9-3,0-3C1797.1,139.5,1797.1,142.5,1799,142.5L1799,142.5z"/>
		</g>
	</g>
	<g class="st30">
		<g>
			<path class="st29" d="M1873,78.5c1.9,0,1.9-3,0-3C1871.1,75.5,1871.1,78.5,1873,78.5L1873,78.5z"/>
		</g>
	</g>
	<g class="st30">
		<g>
			<path class="st29" d="M1895,168.5c1.9,0,1.9-3,0-3C1893.1,165.5,1893.1,168.5,1895,168.5L1895,168.5z"/>
		</g>
	</g>
</g>
</svg>
